<svg id="kity_svg_6" xmlns="http://www.w3.org/2000/svg" xmlns:xlink="http://www.w3.org/1999/xlink" version="1.1" width="2748" height="985" style="background: rgb(251, 251, 251) none repeat scroll 0% 0%; visibility: visible;" viewBox="0 0 2748 985"><defs id="kity_defs_7"><linearGradient id="kity_linearGradient_17" x1="0" y1="0" x2="0" y2="1"><stop id="kity_stop_18" offset="0" stop-color="rgb(255, 255, 255)"></stop><stop id="kity_stop_19" offset="1" stop-color="rgb(204, 204, 204)"></stop></linearGradient><marker id="kity_marker_2" orient="auto" refX="6" refY="0" viewBox="-7 -7 14 14" markerWidth="7" markerHeight="7" markerUnits="userSpaceOnUse"><path id="kity_path_3" fill="rgb(115, 161, 191)" stroke="none" d="M6,0A6,6,0,1,1,-6,0A6,6,0,1,1,6,0"></path></marker></defs><g id="kity_g_8"><g id="minder1" text-rendering="optimize-speed"><g id="minder_connect_group1"><path id="kity_path_31" fill="none" stroke="rgb(115, 161, 191)" stroke-width="1" d="M1436,618.5A238.5,138,0,0,1,1674.5,480.5"></path><path id="kity_path_39" fill="none" stroke="rgb(115, 161, 191)" stroke-width="1" d="M1436,618.5A171.5,221,0,0,0,1607.5,839.5"></path><path id="kity_path_47" fill="none" stroke="rgb(115, 161, 191)" stroke-width="1" d="M1436,618.5A190.5,211,0,0,0,1245.5,407.5"></path><path id="kity_path_55" fill="none" stroke="rgb(115, 161, 191)" stroke-width="1" d="M1436,618.5A222.5,2,0,0,1,1213.5,620.5"></path><path id="kity_path_63" fill="none" stroke="rgb(115, 161, 191)" stroke-width="1" d="M1436,618.5A212.5,242,0,0,1,1223.5,860.5"></path><path id="kity_path_180" fill="none" stroke="rgb(115, 161, 191)" stroke-width="1" d="M1033.5,286.5C1004,286.5,1004,45.5,974.5,45.5L759.5,45.5"></path><path id="kity_path_181" fill="none" stroke="rgb(115, 161, 191)" stroke-width="1" d="M1121.5,407.5C1104.5,407.5,1104.5,286.5,1087.5,286.5L1033.5,286.5"></path><path id="kity_path_182" fill="none" stroke="rgb(115, 161, 191)" stroke-width="1" d="M1121.5,407.5C1098,407.5,1098,573.5,1074.5,573.5L1020.5,573.5"></path><path id="kity_path_184" fill="none" stroke="rgb(115, 161, 191)" stroke-width="1" d="M1033.5,286.5C1004.5,286.5,1004.5,91.5,975.5,91.5L718.5,91.5"></path><path id="kity_path_192" fill="none" stroke="rgb(115, 161, 191)" stroke-width="1" d="M1033.5,286.5C1007,286.5,1007,136.5,980.5,136.5L744.5,136.5"></path><path id="kity_path_200" fill="none" stroke="rgb(115, 161, 191)" stroke-width="1" d="M1033.5,286.5C1004,286.5,1004,186.5,974.5,186.5L741.5,186.5"></path><path id="kity_path_208" fill="none" stroke="rgb(115, 161, 191)" stroke-width="1" d="M1033.5,286.5C1006.5,286.5,1006.5,238.5,979.5,238.5L765.5,238.5"></path><path id="kity_path_216" fill="none" stroke="rgb(115, 161, 191)" stroke-width="1" d="M1033.5,286.5C1005,286.5,1005,297.5,976.5,297.5L761.5,297.5"></path><path id="kity_path_224" fill="none" stroke="rgb(115, 161, 191)" stroke-width="1" d="M1033.5,286.5C1012.5,286.5,1012.5,360.5,991.5,360.5L645.5,360.5"></path><path id="kity_path_236" fill="none" stroke="rgb(115, 161, 191)" stroke-width="1" d="M1138.5,860.5C1123.5,860.5,1123.5,809.5,1108.5,809.5L795.5,809.5"></path><path id="kity_path_237" fill="none" stroke="rgb(115, 161, 191)" stroke-width="1" d="M1138.5,860.5C1123.5,860.5,1123.5,861.5,1108.5,861.5L922.5,861.5"></path><path id="kity_path_238" fill="none" stroke="rgb(115, 161, 191)" stroke-width="1" d="M904.5,939.5C889.5,939.5,889.5,913.5,874.5,913.5L714.5,913.5"></path><path id="kity_path_239" fill="none" stroke="rgb(115, 161, 191)" stroke-width="1" d="M904.5,939.5C889.5,939.5,889.5,965.5,874.5,965.5L715.5,965.5"></path><path id="kity_path_240" fill="none" stroke="rgb(115, 161, 191)" stroke-width="1" d="M1138.5,860.5C1123.5,860.5,1123.5,939.5,1108.5,939.5L904.5,939.5"></path><path id="kity_path_241" fill="none" stroke="rgb(115, 161, 191)" stroke-width="1" d="M1097.5,620.5C1082.5,620.5,1082.5,569.5,1067.5,569.5L879.5,569.5"></path><path id="kity_path_242" fill="none" stroke="rgb(115, 161, 191)" stroke-width="1" d="M1097.5,620.5C1082.5,620.5,1082.5,621.5,1067.5,621.5L865.5,621.5"></path><path id="kity_path_243" fill="none" stroke="rgb(115, 161, 191)" stroke-width="1" d="M918.5,699.5C903.5,699.5,903.5,673.5,888.5,673.5L750.5,673.5"></path><path id="kity_path_244" fill="none" stroke="rgb(115, 161, 191)" stroke-width="1" d="M918.5,699.5C903.5,699.5,903.5,725.5,888.5,725.5L750.5,725.5"></path><path id="kity_path_245" fill="none" stroke="rgb(115, 161, 191)" stroke-width="1" d="M1097.5,620.5C1082.5,620.5,1082.5,699.5,1067.5,699.5L918.5,699.5"></path><path id="kity_path_247" fill="none" stroke="rgb(115, 161, 191)" stroke-width="1" d="M1020.5,573.5C990,573.5,990,426.5,959.5,426.5L526.5,426.5"></path><path id="kity_path_255" fill="none" stroke="rgb(115, 161, 191)" stroke-width="1" d="M1020.5,573.5C1000,573.5,1000,517.5,979.5,517.5L479.5,517.5"></path><path id="kity_path_263" fill="none" stroke="rgb(115, 161, 191)" stroke-width="1" d="M1020.5,573.5C1002.5,573.5,1002.5,586.5,984.5,586.5L20.5,586.5"></path><path id="kity_path_352" fill="none" stroke="rgb(115, 161, 191)" stroke-width="1" d="M1851.5,480.5C1866.5,480.5,1866.5,455.5,1881.5,455.5L2728.5,455.5"></path><path id="kity_path_353" fill="none" stroke="none" display="none"></path><path id="kity_path_354" fill="none" stroke="rgb(115, 161, 191)" stroke-width="1" d="M1947.5,533.5C1962.5,533.5,1962.5,507.5,1977.5,507.5L2107.5,507.5"></path><path id="kity_path_355" fill="none" stroke="rgb(115, 161, 191)" stroke-width="1" d="M1947.5,533.5C1962.5,533.5,1962.5,559.5,1977.5,559.5L2113.5,559.5"></path><path id="kity_path_356" fill="none" stroke="rgb(115, 161, 191)" stroke-width="1" d="M1851.5,480.5C1866.5,480.5,1866.5,533.5,1881.5,533.5L1947.5,533.5"></path><path id="kity_path_357" fill="none" stroke="rgb(115, 161, 191)" stroke-width="1" d="M1790.5,839.5C1809,839.5,1809,769.5,1827.5,769.5L2593.5,769.5"></path><path id="kity_path_358" fill="none" stroke="none" display="none"></path><path id="kity_path_359" fill="none" stroke="rgb(115, 161, 191)" stroke-width="1" d="M1886.5,892.5C1901.5,892.5,1901.5,866.5,1916.5,866.5L2042.5,866.5"></path><path id="kity_path_360" fill="none" stroke="rgb(115, 161, 191)" stroke-width="1" d="M1886.5,892.5C1901.5,892.5,1901.5,918.5,1916.5,918.5L2052.5,918.5"></path><path id="kity_path_361" fill="none" stroke="rgb(115, 161, 191)" stroke-width="1" d="M1790.5,839.5C1805.5,839.5,1805.5,892.5,1820.5,892.5L1886.5,892.5"></path></g><g id="minder_node1"><path id="node_outline1" fill="rgb(115, 161, 191)" stroke="rgb(115, 161, 191)" d="M1397.5,598.5h77a5,5,0,0,1,5,5v30a5,5,0,0,1,-5,5h-77a5,5,0,0,1,-5,-5v-30a5,5,0,0,1,5,-5z" stroke-width="3"></path><g id="node_text1" fill="white"><text id="kity_text_22" text-rendering="inherit" font-size="16" dy=".8em" y="607.939998626709" x="1416.5">BOM</text></g></g><g id="kity_g_14" display="none"><path id="kity_path_15" fill="rgba(0, 92, 153, 0.5)" stroke="none" d="M744.5,128.5h226v15h-226z"></path><path id="kity_path_16" fill="none" stroke="rgb(0, 76, 128)" d="M744.5,128.5L970.5,128.5" stroke-width="1"></path></g><g id="minder_node2" opacity="1"><g id="node_expander1" style="cursor: pointer;"><path id="kity_path_36" fill="white" stroke="gray" d="M1675.5,480.5A6,6,0,1,1,1663.5,480.5A6,6,0,1,1,1675.5,480.5"></path><path id="kity_path_37" fill="none" stroke="gray" d="M1665,480.5L1674,480.5"></path></g><path id="node_outline2" fill="rgb(238, 243, 246)" stroke="rgb(115, 161, 191)" d="M1679.5,467.5h169a3,3,0,0,1,3,3v20a3,3,0,0,1,-3,3h-169a3,3,0,0,1,-3,-3v-20a3,3,0,0,1,3,-3z" stroke-width="1"></path><g id="node_text2" fill="black"><text id="kity_text_33" text-rendering="inherit" font-size="14" dy=".8em" y="471.2599983215332" x="1696.5">间歇调用setInterval()</text></g></g><g id="minder_node3" opacity="1"><g id="node_expander2" style="cursor: pointer;"><path id="kity_path_44" fill="white" stroke="gray" d="M1608.5,839.5A6,6,0,1,1,1596.5,839.5A6,6,0,1,1,1608.5,839.5"></path><path id="kity_path_45" fill="none" stroke="gray" d="M1598,839.5L1607,839.5"></path></g><path id="node_outline3" fill="rgb(238, 243, 246)" stroke="rgb(115, 161, 191)" d="M1612.5,826.5h175a3,3,0,0,1,3,3v20a3,3,0,0,1,-3,3h-175a3,3,0,0,1,-3,-3v-20a3,3,0,0,1,3,-3z" stroke-width="1"></path><g id="node_text3" fill="black"><text id="kity_text_41" text-rendering="inherit" font-size="14" dy=".8em" y="830.2599983215332" x="1629.5">超时调用setTimeout()</text></g></g><g id="minder_node4" opacity="1"><g id="node_expander3" style="cursor: pointer;"><path id="kity_path_52" fill="white" stroke="gray" d="M1120.5,407.5A6,6,0,1,1,1108.5,407.5A6,6,0,1,1,1120.5,407.5"></path><path id="kity_path_53" fill="none" stroke="gray" d="M1110,407.5L1119,407.5"></path></g><path id="node_outline4" fill="rgb(238, 243, 246)" stroke="rgb(115, 161, 191)" d="M1124.5,394.5h116a3,3,0,0,1,3,3v20a3,3,0,0,1,-3,3h-116a3,3,0,0,1,-3,-3v-20a3,3,0,0,1,3,-3z" stroke-width="1"></path><g id="node_text4" fill="black"><text id="kity_text_49" text-rendering="inherit" font-size="14" dy=".8em" y="398.2599983215332" x="1141.5">location对象</text></g></g><g id="minder_node5" opacity="1"><g id="node_expander4" style="cursor: pointer;"><path id="kity_path_60" fill="white" stroke="gray" d="M1224.5,620.5A6,6,0,1,1,1212.5,620.5A6,6,0,1,1,1224.5,620.5"></path><path id="kity_path_61" fill="none" stroke="gray" d="M1214,620.5L1223,620.5"></path></g><path id="node_outline5" fill="rgb(238, 243, 246)" stroke="rgb(115, 161, 191)" d="M1100.5,607.5h108a3,3,0,0,1,3,3v20a3,3,0,0,1,-3,3h-108a3,3,0,0,1,-3,-3v-20a3,3,0,0,1,3,-3z" stroke-width="1"></path><g id="node_text5" fill="black"><text id="kity_text_57" text-rendering="inherit" font-size="14" dy=".8em" y="611.2599983215332" x="1117.5">history对象</text></g></g><g id="minder_node6" opacity="1"><g id="node_expander5" style="cursor: pointer;"><path id="kity_path_68" fill="white" stroke="gray" d="M1234.5,860.5A6,6,0,1,1,1222.5,860.5A6,6,0,1,1,1234.5,860.5"></path><path id="kity_path_69" fill="none" stroke="gray" d="M1224,860.5L1233,860.5"></path></g><path id="node_outline6" fill="rgb(238, 243, 246)" stroke="rgb(115, 161, 191)" d="M1141.5,847.5h77a3,3,0,0,1,3,3v20a3,3,0,0,1,-3,3h-77a3,3,0,0,1,-3,-3v-20a3,3,0,0,1,3,-3z" stroke-width="1"></path><g id="node_text6" fill="black"><text id="kity_text_65" text-rendering="inherit" font-size="14" dy=".8em" y="851.2599983215332" x="1158.5">提示框</text></g></g><g id="minder_node19" opacity="1"><g id="node_expander18" style="cursor: pointer;" display="none"><path id="kity_path_177" fill="white" stroke="gray" d="M759.5,31.5A6,6,0,1,1,747.5,31.5A6,6,0,1,1,759.5,31.5"></path><path id="kity_path_178" fill="none" stroke="gray"></path></g><path id="node_outline19" fill="none" stroke="none" d="M764.5,20.5h195a5,5,0,0,1,5,5v12a5,5,0,0,1,-5,5h-195a5,5,0,0,1,-5,-5v-12a5,5,0,0,1,5,-5z" stroke-width="3"></path><g id="node_text19" fill="black"><text id="kity_text_174" text-rendering="inherit" font-size="12" dy=".8em" y="23.580001831054688" x="769.5">host&#xa0;&#xa0; &#xa0;&#xa0;&#xa0; &#xa0;返回服务器名称和端口号</text></g></g><g id="minder_node17" opacity="1"><g id="node_expander16" style="cursor: pointer;"><path id="kity_path_161" fill="white" stroke="gray" d="M1033.5,272.5A6,6,0,1,1,1021.5,272.5A6,6,0,1,1,1033.5,272.5"></path><path id="kity_path_162" fill="none" stroke="gray" d="M1023,272.5L1032,272.5"></path></g><path id="node_outline17" fill="none" stroke="none" d="M1038.5,261.5h34a5,5,0,0,1,5,5v12a5,5,0,0,1,-5,5h-34a5,5,0,0,1,-5,-5v-12a5,5,0,0,1,5,-5z" stroke-width="3"></path><g id="node_text17" fill="black"><text id="kity_text_158" text-rendering="inherit" font-size="12" dy=".8em" y="264.5800018310547" x="1043.5">属性</text></g></g><g id="minder_node18" opacity="1"><g id="node_expander17" style="cursor: pointer;"><path id="kity_path_169" fill="white" stroke="gray" d="M1020.5,559.5A6,6,0,1,1,1008.5,559.5A6,6,0,1,1,1020.5,559.5"></path><path id="kity_path_170" fill="none" stroke="gray" d="M1010,559.5L1019,559.5"></path></g><path id="node_outline18" fill="none" stroke="none" d="M1025.5,548.5h34a5,5,0,0,1,5,5v12a5,5,0,0,1,-5,5h-34a5,5,0,0,1,-5,-5v-12a5,5,0,0,1,5,-5z" stroke-width="3"></path><g id="node_text18" fill="black"><text id="kity_text_166" text-rendering="inherit" font-size="12" dy=".8em" y="551.5800018310547" x="1030.5">方法</text></g></g><g id="minder_node20" opacity="1"><g id="node_expander19" style="cursor: pointer;" display="none"><path id="kity_path_189" fill="white" stroke="gray" d="M718.5,77.5A6,6,0,1,1,706.5,77.5A6,6,0,1,1,718.5,77.5"></path><path id="kity_path_190" fill="none" stroke="gray"></path></g><path id="node_outline20" fill="none" stroke="none" d="M723.5,66.5h237a5,5,0,0,1,5,5v12a5,5,0,0,1,-5,5h-237a5,5,0,0,1,-5,-5v-12a5,5,0,0,1,5,-5z" stroke-width="3"></path><g id="node_text20" fill="black"><text id="kity_text_186" text-rendering="inherit" font-size="12" dy=".8em" y="69.58000183105469" x="728.5">hostname&#xa0;&#xa0; &#xa0;返回不带端口号的服务器名称</text></g></g><g id="minder_node21" opacity="1"><g id="node_expander20" style="cursor: pointer;" display="none"><path id="kity_path_197" fill="white" stroke="gray" d="M744.5,122.5A6,6,0,1,1,732.5,122.5A6,6,0,1,1,744.5,122.5"></path><path id="kity_path_198" fill="none" stroke="gray"></path></g><path id="node_outline21" fill="none" stroke="none" d="M749.5,111.5h216a5,5,0,0,1,5,5v12a5,5,0,0,1,-5,5h-216a5,5,0,0,1,-5,-5v-12a5,5,0,0,1,5,-5z" stroke-width="3"></path><g id="node_text21" fill="black"><text id="kity_text_194" text-rendering="inherit" font-size="12" dy=".8em" y="114.58000183105469" x="754.5">href&#xa0;&#xa0; &#xa0;&#xa0;&#xa0; &#xa0;返回当前加载页面的完整URL</text></g></g><g id="minder_node22" opacity="1"><g id="node_expander21" style="cursor: pointer;" display="none"><path id="kity_path_205" fill="white" stroke="gray" d="M741.5,172.5A6,6,0,1,1,729.5,172.5A6,6,0,1,1,741.5,172.5"></path><path id="kity_path_206" fill="none" stroke="gray"></path></g><path id="node_outline22" fill="none" stroke="none" d="M746.5,161.5h213a5,5,0,0,1,5,5v12a5,5,0,0,1,-5,5h-213a5,5,0,0,1,-5,-5v-12a5,5,0,0,1,5,-5z" stroke-width="3"></path><g id="node_text22" fill="black"><text id="kity_text_202" text-rendering="inherit" font-size="12" dy=".8em" y="164.5800018310547" x="751.5">pathname&#xa0;&#xa0; &#xa0;返回URL的目录和文件名</text></g></g><g id="minder_node23" opacity="1"><g id="node_expander22" style="cursor: pointer;" display="none"><path id="kity_path_213" fill="white" stroke="gray" d="M765.5,224.5A6,6,0,1,1,753.5,224.5A6,6,0,1,1,765.5,224.5"></path><path id="kity_path_214" fill="none" stroke="gray"></path></g><path id="node_outline23" fill="none" stroke="none" d="M770.5,213.5h194a5,5,0,0,1,5,5v12a5,5,0,0,1,-5,5h-194a5,5,0,0,1,-5,-5v-12a5,5,0,0,1,5,-5z" stroke-width="3"></path><g id="node_text23" fill="black"><text id="kity_text_210" text-rendering="inherit" font-size="12" dy=".8em" y="216.5800018310547" x="775.5">port&#xa0;&#xa0; &#xa0;&#xa0;&#xa0; &#xa0;返回URL中指定的端口号</text></g></g><g id="minder_node24" opacity="1"><g id="node_expander23" style="cursor: pointer;" display="none"><path id="kity_path_221" fill="white" stroke="gray" d="M761.5,283.5A6,6,0,1,1,749.5,283.5A6,6,0,1,1,761.5,283.5"></path><path id="kity_path_222" fill="none" stroke="gray"></path></g><path id="node_outline24" fill="none" stroke="none" d="M766.5,272.5h195a5,5,0,0,1,5,5v12a5,5,0,0,1,-5,5h-195a5,5,0,0,1,-5,-5v-12a5,5,0,0,1,5,-5z" stroke-width="3"></path><g id="node_text24" fill="black"><text id="kity_text_218" text-rendering="inherit" font-size="12" dy=".8em" y="275.5800018310547" x="771.5">protocol&#xa0;&#xa0; &#xa0;&#xa0;&#xa0; &#xa0;返回页面使用的协议</text></g></g><g id="minder_node25" opacity="1"><g id="node_expander24" style="cursor: pointer;" display="none"><path id="kity_path_229" fill="white" stroke="gray" d="M645.5,346.5A6,6,0,1,1,633.5,346.5A6,6,0,1,1,645.5,346.5"></path><path id="kity_path_230" fill="none" stroke="gray"></path></g><path id="node_outline25" fill="none" stroke="none" d="M650.5,335.5h326a5,5,0,0,1,5,5v12a5,5,0,0,1,-5,5h-326a5,5,0,0,1,-5,-5v-12a5,5,0,0,1,5,-5z" stroke-width="3"></path><g id="node_text25" fill="black"><text id="kity_text_226" text-rendering="inherit" font-size="12" dy=".8em" y="338.5800018310547" x="655.5">search&#xa0;&#xa0; &#xa0;&#xa0;&#xa0; &#xa0;返回URL的查询字符串。这个字符串以问号开头</text></g></g><g id="minder_node7"><g id="node_expander6" style="cursor: pointer;" display="none"><path id="kity_path_76" fill="white" stroke="gray" d="M1110.5,795.5A6,6,0,1,1,1098.5,795.5A6,6,0,1,1,1110.5,795.5"></path><path id="kity_path_77" fill="none" stroke="gray"></path></g><path id="node_outline7" fill="none" stroke="none" d="M800.5,784.5h293a5,5,0,0,1,5,5v12a5,5,0,0,1,-5,5h-293a5,5,0,0,1,-5,-5v-12a5,5,0,0,1,5,-5z" stroke-width="3"></path><g id="node_text7" fill="black"><text id="kity_text_73" text-rendering="inherit" font-size="12" dy=".8em" y="787.5800018310547" x="805.5">promat('要提示的内容') 会话框&#xa0; 返回值是用户的输入</text></g></g><g id="minder_node8"><g id="node_expander7" style="cursor: pointer;" display="none"><path id="kity_path_84" fill="white" stroke="gray" d="M1110.5,847.5A6,6,0,1,1,1098.5,847.5A6,6,0,1,1,1110.5,847.5"></path><path id="kity_path_85" fill="none" stroke="gray"></path></g><path id="node_outline8" fill="none" stroke="none" d="M927.5,836.5h166a5,5,0,0,1,5,5v12a5,5,0,0,1,-5,5h-166a5,5,0,0,1,-5,-5v-12a5,5,0,0,1,5,-5z" stroke-width="3"></path><g id="node_text8" fill="black"><text id="kity_text_81" text-rendering="inherit" font-size="12" dy=".8em" y="839.5800018310547" x="932.5">alert()&#xa0; 弹出框&#xa0; 提示一个内容</text></g></g><g id="minder_node10"><g id="node_expander9" style="cursor: pointer;" display="none"><path id="kity_path_100" fill="white" stroke="gray" d="M876.5,899.5A6,6,0,1,1,864.5,899.5A6,6,0,1,1,876.5,899.5"></path><path id="kity_path_101" fill="none" stroke="gray"></path></g><path id="node_outline10" fill="none" stroke="none" d="M719.5,888.5h140a5,5,0,0,1,5,5v12a5,5,0,0,1,-5,5h-140a5,5,0,0,1,-5,-5v-12a5,5,0,0,1,5,-5z" stroke-width="3"></path><g id="node_text10" fill="black"><text id="kity_text_97" text-rendering="inherit" font-size="12" dy=".8em" y="891.5800018310547" x="724.5">true&#xa0; 用户按下了确认键&#xa0; </text></g></g><g id="minder_node11"><g id="node_expander10" style="cursor: pointer;" display="none"><path id="kity_path_108" fill="white" stroke="gray" d="M876.5,951.5A6,6,0,1,1,864.5,951.5A6,6,0,1,1,876.5,951.5"></path><path id="kity_path_109" fill="none" stroke="gray"></path></g><path id="node_outline11" fill="none" stroke="none" d="M720.5,940.5h139a5,5,0,0,1,5,5v12a5,5,0,0,1,-5,5h-139a5,5,0,0,1,-5,-5v-12a5,5,0,0,1,5,-5z" stroke-width="3"></path><g id="node_text11" fill="black"><text id="kity_text_105" text-rendering="inherit" font-size="12" dy=".8em" y="943.5800018310547" x="725.5">false&#xa0; 用户按下了取消键</text></g></g><g id="minder_node9"><g id="node_expander8" style="cursor: pointer;"><path id="kity_path_92" fill="white" stroke="gray" d="M1110.5,925.5A6,6,0,1,1,1098.5,925.5A6,6,0,1,1,1110.5,925.5"></path><path id="kity_path_93" fill="none" stroke="gray" d="M1100,925.5L1109,925.5"></path></g><path id="node_outline9" fill="none" stroke="none" d="M909.5,914.5h184a5,5,0,0,1,5,5v12a5,5,0,0,1,-5,5h-184a5,5,0,0,1,-5,-5v-12a5,5,0,0,1,5,-5z" stroke-width="3"></path><g id="node_text9" fill="black"><text id="kity_text_89" text-rendering="inherit" font-size="12" dy=".8em" y="917.5800018310547" x="914.5">confirm('要确认的内容')&#xa0; 确认框</text></g></g><g id="minder_node12"><g id="node_expander11" style="cursor: pointer;" display="none"><path id="kity_path_116" fill="white" stroke="gray" d="M1069.5,555.5A6,6,0,1,1,1057.5,555.5A6,6,0,1,1,1069.5,555.5"></path><path id="kity_path_117" fill="none" stroke="gray"></path></g><path id="node_outline12" fill="none" stroke="none" d="M884.5,544.5h168a5,5,0,0,1,5,5v12a5,5,0,0,1,-5,5h-168a5,5,0,0,1,-5,-5v-12a5,5,0,0,1,5,-5z" stroke-width="3"></path><g id="node_text12" fill="black"><text id="kity_text_113" text-rendering="inherit" font-size="12" dy=".8em" y="547.5800018310547" x="889.5">history.back()&#xa0;&#xa0;&#xa0;&#xa0;&#xa0; 返回上一页</text></g></g><g id="minder_node13"><g id="node_expander12" style="cursor: pointer;" display="none"><path id="kity_path_124" fill="white" stroke="gray" d="M1069.5,607.5A6,6,0,1,1,1057.5,607.5A6,6,0,1,1,1069.5,607.5"></path><path id="kity_path_125" fill="none" stroke="gray"></path></g><path id="node_outline13" fill="none" stroke="none" d="M870.5,596.5h182a5,5,0,0,1,5,5v12a5,5,0,0,1,-5,5h-182a5,5,0,0,1,-5,-5v-12a5,5,0,0,1,5,-5z" stroke-width="3"></path><g id="node_text13" fill="black"><text id="kity_text_121" text-rendering="inherit" font-size="12" dy=".8em" y="599.5800018310547" x="875.5">history.foward()&#xa0;&#xa0;&#xa0;&#xa0;&#xa0; 返回下一页</text></g></g><g id="minder_node15"><g id="node_expander14" style="cursor: pointer;" display="none"><path id="kity_path_140" fill="white" stroke="gray" d="M890.5,659.5A6,6,0,1,1,878.5,659.5A6,6,0,1,1,890.5,659.5"></path><path id="kity_path_141" fill="none" stroke="gray"></path></g><path id="node_outline15" fill="none" stroke="none" d="M755.5,648.5h118a5,5,0,0,1,5,5v12a5,5,0,0,1,-5,5h-118a5,5,0,0,1,-5,-5v-12a5,5,0,0,1,5,-5z" stroke-width="3"></path><g id="node_text15" fill="black"><text id="kity_text_137" text-rendering="inherit" font-size="12" dy=".8em" y="651.5800018310547" x="760.5">正数：返回后第几页</text></g></g><g id="minder_node16"><g id="node_expander15" style="cursor: pointer;" display="none"><path id="kity_path_148" fill="white" stroke="gray" d="M890.5,711.5A6,6,0,1,1,878.5,711.5A6,6,0,1,1,890.5,711.5"></path><path id="kity_path_149" fill="none" stroke="gray"></path></g><path id="node_outline16" fill="none" stroke="none" d="M755.5,700.5h118a5,5,0,0,1,5,5v12a5,5,0,0,1,-5,5h-118a5,5,0,0,1,-5,-5v-12a5,5,0,0,1,5,-5z" stroke-width="3"></path><g id="node_text16" fill="black"><text id="kity_text_145" text-rendering="inherit" font-size="12" dy=".8em" y="703.5800018310547" x="760.5">负数：返回前第几页</text></g></g><g id="minder_node14"><g id="node_expander13" style="cursor: pointer;"><path id="kity_path_132" fill="white" stroke="gray" d="M1069.5,685.5A6,6,0,1,1,1057.5,685.5A6,6,0,1,1,1069.5,685.5"></path><path id="kity_path_133" fill="none" stroke="gray" d="M1059,685.5L1068,685.5"></path></g><path id="node_outline14" fill="none" stroke="none" d="M923.5,674.5h129a5,5,0,0,1,5,5v12a5,5,0,0,1,-5,5h-129a5,5,0,0,1,-5,-5v-12a5,5,0,0,1,5,-5z" stroke-width="3"></path><g id="node_text14" fill="black"><text id="kity_text_129" text-rendering="inherit" font-size="12" dy=".8em" y="677.5800018310547" x="928.5">history.go(正数/负数)</text></g></g><g id="minder_node26" opacity="1"><g id="node_expander25" style="cursor: pointer;" display="none"><path id="kity_path_252" fill="white" stroke="gray" d="M526.5,412.5A6,6,0,1,1,514.5,412.5A6,6,0,1,1,526.5,412.5"></path><path id="kity_path_253" fill="none" stroke="gray"></path></g><path id="node_outline26" fill="none" stroke="none" d="M531.5,401.5h413a5,5,0,0,1,5,5v12a5,5,0,0,1,-5,5h-413a5,5,0,0,1,-5,-5v-12a5,5,0,0,1,5,-5z" stroke-width="3"></path><g id="node_text26" fill="black"><text id="kity_text_249" text-rendering="inherit" font-size="12" dy=".8em" y="404.5800018310547" x="536.5">assign()&#xa0;&#xa0; &#xa0;&#xa0;&#xa0; &#xa0;传递一个url参数，打开新url，并在浏览记录中生成一条记录。</text></g></g><g id="minder_node27" opacity="1"><g id="node_expander26" style="cursor: pointer;" display="none"><path id="kity_path_260" fill="white" stroke="gray" d="M479.5,503.5A6,6,0,1,1,467.5,503.5A6,6,0,1,1,479.5,503.5"></path><path id="kity_path_261" fill="none" stroke="gray"></path></g><path id="node_outline27" fill="none" stroke="none" d="M484.5,492.5h480a5,5,0,0,1,5,5v12a5,5,0,0,1,-5,5h-480a5,5,0,0,1,-5,-5v-12a5,5,0,0,1,5,-5z" stroke-width="3"></path><g id="node_text27" fill="black"><text id="kity_text_257" text-rendering="inherit" font-size="12" dy=".8em" y="495.5800018310547" x="489.5">replace() &#xa0;&#xa0; &#xa0;参数为一个url,结果会导致浏览器位置改变，但不会在历史记录中生成新记录</text></g></g><g id="minder_node28" opacity="1"><g id="node_expander27" style="cursor: pointer;" display="none"><path id="kity_path_268" fill="white" stroke="gray" d="M20.5,572.5A6,6,0,1,1,8.5,572.5A6,6,0,1,1,20.5,572.5"></path><path id="kity_path_269" fill="none" stroke="gray"></path></g><path id="node_outline28" fill="none" stroke="none" d="M25.5,561.5h944a5,5,0,0,1,5,5v12a5,5,0,0,1,-5,5h-944a5,5,0,0,1,-5,-5v-12a5,5,0,0,1,5,-5z" stroke-width="3"></path><g id="node_text28" fill="black"><text id="kity_text_265" text-rendering="inherit" font-size="12" dy=".8em" y="564.5800018310547" x="30.5">reload()&#xa0;&#xa0; &#xa0;&#xa0;&#xa0; &#xa0;重新加载当前显示的页面，参数可以为boolean类型，默认为false,表示以最有效方式重新加载，可能从缓存中直接加载。如果参数为false,强制从服务器中重新加载</text></g></g><g id="kity_g_12" display="none"><path id="kity_path_13" fill="none" stroke="rgb(66, 94, 112)" d="M1025.5,466.5h34a5,5,0,0,1,5,5v12a5,5,0,0,1,-5,5h-34a5,5,0,0,1,-5,-5v-12a5,5,0,0,1,5,-5z" stroke-width="5"></path></g><g id="minder_node34"><g id="node_expander33" style="cursor: pointer;" display="none"><path id="kity_path_316" fill="white" stroke="gray" d="M1891.5,441.5A6,6,0,1,1,1879.5,441.5A6,6,0,1,1,1891.5,441.5"></path><path id="kity_path_317" fill="none" stroke="gray"></path></g><path id="node_outline34" fill="none" stroke="none" d="M1896.5,430.5h827a5,5,0,0,1,5,5v12a5,5,0,0,1,-5,5h-827a5,5,0,0,1,-5,-5v-12a5,5,0,0,1,5,-5z" stroke-width="3"></path><g id="node_text34" fill="black"><text id="kity_text_313" text-rendering="inherit" font-size="12" dy=".8em" y="433.5800018310547" x="1901.5">按照指定的时间间隔重复执行代码，直到间歇调用被取消或页面被卸载。调用该方法也会返回一个间歇调用ID，该ID可以用户在将来某个时刻取消间歇调用</text></g></g><g id="minder_node37" display="none"><g id="node_expander35" style="cursor: pointer;" display="none"><path id="kity_path_339" fill="white" stroke="gray" d="M2147.5,493.5A6,6,0,1,1,2135.5,493.5A6,6,0,1,1,2147.5,493.5"></path><path id="kity_path_340" fill="none" stroke="gray"></path></g><path id="node_outline36" fill="none" stroke="none" d="M2142.5,482.5h116a5,5,0,0,1,5,5v12a5,5,0,0,1,-5,5h-116a5,5,0,0,1,-5,-5v-12a5,5,0,0,1,5,-5z" stroke-width="3"></path><g id="node_text36" fill="black"><text id="kity_text_333" text-rendering="inherit" font-size="12" dy=".8em" y="485.5800018310547" x="2147.5">2.以毫秒表示的时间</text></g></g><g id="minder_node36"><g id="node_expander36" style="cursor: pointer;"><path id="kity_path_342" fill="white" stroke="gray" d="M1987.5,493.5A6,6,0,1,1,1975.5,493.5A6,6,0,1,1,1987.5,493.5"></path><path id="kity_path_343" fill="none" stroke="gray" d="M1977,493.5L1986,493.5M1981.5,489L1981.5,498"></path></g><path id="node_outline37" fill="none" stroke="none" d="M1992.5,482.5h110a5,5,0,0,1,5,5v12a5,5,0,0,1,-5,5h-110a5,5,0,0,1,-5,-5v-12a5,5,0,0,1,5,-5z" stroke-width="3"></path><g id="node_text37" fill="black"><text id="kity_text_335" text-rendering="inherit" font-size="12" dy=".8em" y="485.5800018310547" x="1997.5"> &#xa0;&#xa0;&#xa0; &#xa0;1.要执行的代码</text></g></g><g id="minder_node38"><g id="node_expander37" style="cursor: pointer;" display="none"><path id="kity_path_350" fill="white" stroke="gray" d="M1987.5,545.5A6,6,0,1,1,1975.5,545.5A6,6,0,1,1,1987.5,545.5"></path><path id="kity_path_351" fill="none" stroke="gray"></path></g><path id="node_outline38" fill="none" stroke="none" d="M1992.5,534.5h116a5,5,0,0,1,5,5v12a5,5,0,0,1,-5,5h-116a5,5,0,0,1,-5,-5v-12a5,5,0,0,1,5,-5z" stroke-width="3"></path><g id="node_text38" fill="black"><text id="kity_text_347" text-rendering="inherit" font-size="12" dy=".8em" y="537.5800018310547" x="1997.5">2.以毫秒表示的时间</text></g></g><g id="minder_node35"><g id="node_expander34" style="cursor: pointer;"><path id="kity_path_324" fill="white" stroke="gray" d="M1891.5,519.5A6,6,0,1,1,1879.5,519.5A6,6,0,1,1,1891.5,519.5"></path><path id="kity_path_325" fill="none" stroke="gray" d="M1881,519.5L1890,519.5"></path></g><path id="node_outline35" fill="none" stroke="none" d="M1896.5,508.5h46a5,5,0,0,1,5,5v12a5,5,0,0,1,-5,5h-46a5,5,0,0,1,-5,-5v-12a5,5,0,0,1,5,-5z" stroke-width="3"></path><g id="node_text35" fill="black"><text id="kity_text_321" text-rendering="inherit" font-size="12" dy=".8em" y="511.5800018310547" x="1901.5">参数：</text></g></g><g id="minder_node29" opacity="1"><g id="node_expander28" style="cursor: pointer;" display="none"><path id="kity_path_276" fill="white" stroke="gray" d="M1837.5,755.5A6,6,0,1,1,1825.5,755.5A6,6,0,1,1,1837.5,755.5"></path><path id="kity_path_277" fill="none" stroke="gray"></path></g><path id="node_outline29" fill="none" stroke="none" d="M1842.5,744.5h746a5,5,0,0,1,5,5v12a5,5,0,0,1,-5,5h-746a5,5,0,0,1,-5,-5v-12a5,5,0,0,1,5,-5z" stroke-width="3"></path><g id="node_text29" fill="black"><text id="kity_text_273" text-rendering="inherit" font-size="12" dy=".8em" y="747.5800018310547" x="1847.5">该方法返回一个数值ID，表示超时调用，这个超时调用ID是计划执行代码的唯一标识符通过它来取消超时调用。可以通过clearTimeout(ID);</text></g></g><g id="minder_node32" opacity="1" display="none"><g id="node_expander30" style="cursor: pointer;" display="none"><path id="kity_path_297" fill="white" stroke="gray" d="M2082.5,852.5A6,6,0,1,1,2070.5,852.5A6,6,0,1,1,2082.5,852.5"></path><path id="kity_path_298" fill="none" stroke="gray"></path></g><path id="node_outline31" fill="none" stroke="none" d="M2077.5,841.5h128a5,5,0,0,1,5,5v12a5,5,0,0,1,-5,5h-128a5,5,0,0,1,-5,-5v-12a5,5,0,0,1,5,-5z" stroke-width="3"></path><g id="node_text31" fill="black"><text id="kity_text_291" text-rendering="inherit" font-size="12" dy=".8em" y="844.5800018310547" x="2082.5">2.以毫秒表示的时间。</text></g></g><g id="minder_node31"><g id="node_expander31" style="cursor: pointer;"><path id="kity_path_300" fill="white" stroke="gray" d="M1926.5,852.5A6,6,0,1,1,1914.5,852.5A6,6,0,1,1,1926.5,852.5"></path><path id="kity_path_301" fill="none" stroke="gray" d="M1916,852.5L1925,852.5M1920.5,848L1920.5,857"></path></g><path id="node_outline32" fill="none" stroke="none" d="M1931.5,841.5h106a5,5,0,0,1,5,5v12a5,5,0,0,1,-5,5h-106a5,5,0,0,1,-5,-5v-12a5,5,0,0,1,5,-5z" stroke-width="3"></path><g id="node_text32" fill="black"><text id="kity_text_293" text-rendering="inherit" font-size="12" dy=".8em" y="844.5800018310547" x="1936.5"> &#xa0;&#xa0; &#xa0;1.要执行的代码</text></g></g><g id="minder_node33"><g id="node_expander32" style="cursor: pointer;" display="none"><path id="kity_path_308" fill="white" stroke="gray" d="M1926.5,904.5A6,6,0,1,1,1914.5,904.5A6,6,0,1,1,1926.5,904.5"></path><path id="kity_path_309" fill="none" stroke="gray"></path></g><path id="node_outline33" fill="none" stroke="none" d="M1931.5,893.5h116a5,5,0,0,1,5,5v12a5,5,0,0,1,-5,5h-116a5,5,0,0,1,-5,-5v-12a5,5,0,0,1,5,-5z" stroke-width="3"></path><g id="node_text33" fill="black"><text id="kity_text_305" text-rendering="inherit" font-size="12" dy=".8em" y="896.5800018310547" x="1936.5">2.以毫秒表示的时间</text></g></g><g id="minder_node30"><g id="node_expander29" style="cursor: pointer;"><path id="kity_path_284" fill="white" stroke="gray" d="M1830.5,878.5A6,6,0,1,1,1818.5,878.5A6,6,0,1,1,1830.5,878.5"></path><path id="kity_path_285" fill="none" stroke="gray" d="M1820,878.5L1829,878.5"></path></g><path id="node_outline30" fill="none" stroke="none" d="M1835.5,867.5h46a5,5,0,0,1,5,5v12a5,5,0,0,1,-5,5h-46a5,5,0,0,1,-5,-5v-12a5,5,0,0,1,5,-5z" stroke-width="3"></path><g id="node_text30" fill="black"><text id="kity_text_281" text-rendering="inherit" font-size="12" dy=".8em" y="870.5800018310547" x="1840.5">参数：</text></g></g></g></g></svg>