<svg id="kity_svg_6" xmlns="http://www.w3.org/2000/svg" xmlns:xlink="http://www.w3.org/1999/xlink" version="1.1" width="1624" height="1277" style="background: rgb(251, 251, 251) none repeat scroll 0% 0%; visibility: visible;" viewBox="0 0 1624 1277"><defs id="kity_defs_7"><linearGradient id="kity_linearGradient_17" x1="0" y1="0" x2="0" y2="1"><stop id="kity_stop_18" offset="0" stop-color="rgb(255, 255, 255)"></stop><stop id="kity_stop_19" offset="1" stop-color="rgb(204, 204, 204)"></stop></linearGradient><marker id="kity_marker_2" orient="auto" refX="6" refY="0" viewBox="-7 -7 14 14" markerWidth="7" markerHeight="7" markerUnits="userSpaceOnUse"><path id="kity_path_3" fill="rgb(115, 161, 191)" stroke="none" d="M6,0A6,6,0,1,1,-6,0A6,6,0,1,1,6,0"></path></marker></defs><g id="kity_g_8"><g id="minder1" text-rendering="optimize-speed"><g id="minder_connect_group1"><path id="kity_path_31" fill="none" stroke="rgb(115, 161, 191)" stroke-width="1" d="M748.5,659.5A179,310,0,0,1,927.5,349.5"></path><path id="kity_path_87" fill="none" stroke="rgb(115, 161, 191)" stroke-width="1" d="M1067.5,349.5C1082.5,349.5,1082.5,357.5,1097.5,357.5L1186.5,357.5"></path><path id="kity_path_95" fill="none" stroke="rgb(115, 161, 191)" stroke-width="1" d="M1186.5,357.5C1201.5,357.5,1201.5,45.5,1216.5,45.5L1360.5,45.5"></path><path id="kity_path_103" fill="none" stroke="rgb(115, 161, 191)" stroke-width="1" d="M1186.5,357.5C1201.5,357.5,1201.5,97.5,1216.5,97.5L1405.5,97.5"></path><path id="kity_path_111" fill="none" stroke="rgb(115, 161, 191)" stroke-width="1" d="M1186.5,357.5C1201.5,357.5,1201.5,149.5,1216.5,149.5L1403.5,149.5"></path><path id="kity_path_119" fill="none" stroke="rgb(115, 161, 191)" stroke-width="1" d="M1186.5,357.5C1201.5,357.5,1201.5,201.5,1216.5,201.5L1366.5,201.5"></path><path id="kity_path_127" fill="none" stroke="rgb(115, 161, 191)" stroke-width="1" d="M1186.5,357.5C1201.5,357.5,1201.5,253.5,1216.5,253.5L1381.5,253.5"></path><path id="kity_path_135" fill="none" stroke="rgb(115, 161, 191)" stroke-width="1" d="M1186.5,357.5C1201.5,357.5,1201.5,305.5,1216.5,305.5L1398.5,305.5"></path><path id="kity_path_143" fill="none" stroke="rgb(115, 161, 191)" stroke-width="1" d="M1186.5,357.5C1202,357.5,1202,359.5,1217.5,359.5L1375.5,359.5"></path><path id="kity_path_160" fill="none" stroke="rgb(115, 161, 191)" stroke-width="1" d="M1375.5,359.5C1390.5,359.5,1390.5,359.5,1405.5,359.5L1594.5,359.5"></path><path id="kity_path_162" fill="none" stroke="rgb(115, 161, 191)" stroke-width="1" d="M1186.5,357.5C1201.5,357.5,1201.5,409.5,1216.5,409.5L1431.5,409.5"></path><path id="kity_path_171" fill="none" stroke="rgb(115, 161, 191)" stroke-width="1" d="M1431.5,409.5C1446.5,409.5,1446.5,409.5,1461.5,409.5L1593.5,409.5"></path><path id="kity_path_179" fill="none" stroke="rgb(115, 161, 191)" stroke-width="1" d="M1186.5,357.5C1201.5,357.5,1201.5,461.5,1216.5,461.5L1442.5,461.5"></path><path id="kity_path_197" fill="none" stroke="rgb(115, 161, 191)" stroke-width="1" d="M1442.5,461.5C1457.5,461.5,1457.5,461.5,1472.5,461.5L1604.5,461.5"></path><path id="kity_path_205" fill="none" stroke="rgb(115, 161, 191)" stroke-width="1" d="M1186.5,357.5C1201.5,357.5,1201.5,513.5,1216.5,513.5L1415.5,513.5"></path><path id="kity_path_214" fill="none" stroke="rgb(115, 161, 191)" stroke-width="1" d="M1415.5,513.5C1430.5,513.5,1430.5,513.5,1445.5,513.5L1577.5,513.5"></path><path id="kity_path_222" fill="none" stroke="rgb(115, 161, 191)" stroke-width="1" d="M1186.5,357.5C1201.5,357.5,1201.5,565.5,1216.5,565.5L1378.5,565.5"></path><path id="kity_path_231" fill="none" stroke="rgb(115, 161, 191)" stroke-width="1" d="M1378.5,565.5C1393.5,565.5,1393.5,565.5,1408.5,565.5L1528.5,565.5"></path><path id="kity_path_239" fill="none" stroke="rgb(115, 161, 191)" stroke-width="1" d="M1186.5,357.5C1201.5,357.5,1201.5,617.5,1216.5,617.5L1376.5,617.5"></path><path id="kity_path_248" fill="none" stroke="rgb(115, 161, 191)" stroke-width="1" d="M1376.5,617.5C1391.5,617.5,1391.5,617.5,1406.5,617.5L1526.5,617.5"></path><path id="kity_path_256" fill="none" stroke="rgb(115, 161, 191)" stroke-width="1" d="M1186.5,357.5C1201.5,357.5,1201.5,669.5,1216.5,669.5L1383.5,669.5"></path><path id="kity_path_265" fill="none" stroke="rgb(115, 161, 191)" stroke-width="1" d="M1383.5,669.5C1398.5,669.5,1398.5,669.5,1413.5,669.5L1533.5,669.5"></path><path id="kity_path_273" fill="none" stroke="rgb(115, 161, 191)" stroke-width="1" d="M748.5,659.5A179,311,0,0,0,927.5,970.5"></path><path id="kity_path_281" fill="none" stroke="rgb(115, 161, 191)" stroke-width="1" d="M1052.5,970.5C1067.5,970.5,1067.5,737.5,1082.5,737.5L1301.5,737.5"></path><path id="kity_path_289" fill="none" stroke="rgb(115, 161, 191)" stroke-width="1" d="M1052.5,970.5C1067.5,970.5,1067.5,789.5,1082.5,789.5L1329.5,789.5"></path><path id="kity_path_297" fill="none" stroke="rgb(115, 161, 191)" stroke-width="1" d="M1052.5,970.5C1067.5,970.5,1067.5,841.5,1082.5,841.5L1335.5,841.5"></path><path id="kity_path_305" fill="none" stroke="rgb(115, 161, 191)" stroke-width="1" d="M1052.5,970.5C1067.5,970.5,1067.5,893.5,1082.5,893.5L1338.5,893.5"></path><path id="kity_path_313" fill="none" stroke="rgb(115, 161, 191)" stroke-width="1" d="M1052.5,970.5C1067.5,970.5,1067.5,945.5,1082.5,945.5L1359.5,945.5"></path><path id="kity_path_321" fill="none" stroke="rgb(115, 161, 191)" stroke-width="1" d="M1052.5,970.5C1067.5,970.5,1067.5,997.5,1082.5,997.5L1232.5,997.5"></path><path id="kity_path_330" fill="none" stroke="rgb(115, 161, 191)" stroke-width="1" d="M1232.5,997.5C1247.5,997.5,1247.5,997.5,1262.5,997.5L1399.5,997.5"></path><path id="kity_path_338" fill="none" stroke="rgb(115, 161, 191)" stroke-width="1" d="M1052.5,970.5C1067.5,970.5,1067.5,1049.5,1082.5,1049.5L1274.5,1049.5"></path><path id="kity_path_347" fill="none" stroke="rgb(115, 161, 191)" stroke-width="1" d="M1274.5,1049.5C1289.5,1049.5,1289.5,1049.5,1304.5,1049.5L1489.5,1049.5"></path><path id="kity_path_355" fill="none" stroke="rgb(115, 161, 191)" stroke-width="1" d="M1052.5,970.5C1067.5,970.5,1067.5,1101.5,1082.5,1101.5L1275.5,1101.5"></path><path id="kity_path_364" fill="none" stroke="rgb(115, 161, 191)" stroke-width="1" d="M1275.5,1101.5C1290.5,1101.5,1290.5,1101.5,1305.5,1101.5L1466.5,1101.5"></path><path id="kity_path_372" fill="none" stroke="rgb(115, 161, 191)" stroke-width="1" d="M1052.5,970.5C1067.5,970.5,1067.5,1153.5,1082.5,1153.5L1220.5,1153.5"></path><path id="kity_path_381" fill="none" stroke="rgb(115, 161, 191)" stroke-width="1" d="M1220.5,1153.5C1235.5,1153.5,1235.5,1153.5,1250.5,1153.5L1339.5,1153.5"></path><path id="kity_path_397" fill="none" stroke="rgb(115, 161, 191)" stroke-width="1" d="M1052.5,970.5C1067.5,970.5,1067.5,1231.5,1082.5,1231.5L1289.5,1231.5"></path><path id="kity_path_405" fill="none" stroke="rgb(115, 161, 191)" stroke-width="1" d="M1289.5,1231.5C1304.5,1231.5,1304.5,1205.5,1319.5,1205.5L1487.5,1205.5"></path><path id="kity_path_413" fill="none" stroke="rgb(115, 161, 191)" stroke-width="1" d="M1289.5,1231.5C1304.5,1231.5,1304.5,1257.5,1319.5,1257.5L1506.5,1257.5"></path><path id="kity_path_421" fill="none" stroke="rgb(115, 161, 191)" stroke-width="1" d="M748.5,659.5A179,226,0,0,0,569.5,433.5"></path><path id="kity_path_429" fill="none" stroke="rgb(115, 161, 191)" stroke-width="1" d="M473.5,433.5C458.5,433.5,458.5,239.5,443.5,239.5L233.5,239.5"></path><path id="kity_path_437" fill="none" stroke="rgb(115, 161, 191)" stroke-width="1" d="M473.5,433.5C458.5,433.5,458.5,291.5,443.5,291.5L204.5,291.5"></path><path id="kity_path_445" fill="none" stroke="rgb(115, 161, 191)" stroke-width="1" d="M473.5,433.5C458.5,433.5,458.5,343.5,443.5,343.5L219.5,343.5"></path><path id="kity_path_453" fill="none" stroke="rgb(115, 161, 191)" stroke-width="1" d="M473.5,433.5C458.5,433.5,458.5,395.5,443.5,395.5L247.5,395.5"></path><path id="kity_path_461" fill="none" stroke="rgb(115, 161, 191)" stroke-width="1" d="M473.5,433.5C458.5,433.5,458.5,447.5,443.5,447.5L265.5,447.5"></path><path id="kity_path_469" fill="none" stroke="rgb(115, 161, 191)" stroke-width="1" d="M473.5,433.5C458.5,433.5,458.5,499.5,443.5,499.5L121.5,499.5"></path><path id="kity_path_477" fill="none" stroke="rgb(115, 161, 191)" stroke-width="1" d="M473.5,433.5C460,433.5,460,542.5,446.5,542.5L205.5,542.5"></path><path id="kity_path_486" fill="none" stroke="rgb(115, 161, 191)" stroke-width="1" d="M473.5,433.5C458,433.5,458,584.5,442.5,584.5L273.5,584.5"></path><path id="kity_path_494" fill="none" stroke="rgb(115, 161, 191)" stroke-width="1" d="M473.5,433.5C459,433.5,459,627.5,444.5,627.5L252.5,627.5"></path><path id="kity_path_502" fill="none" stroke="rgb(115, 161, 191)" stroke-width="1" d="M748.5,659.5A179,226,0,0,1,569.5,885.5"></path><path id="kity_path_510" fill="none" stroke="rgb(115, 161, 191)" stroke-width="1" d="M470.5,885.5C455.5,885.5,455.5,717.5,440.5,717.5L317.5,717.5"></path><path id="kity_path_518" fill="none" stroke="rgb(115, 161, 191)" stroke-width="1" d="M470.5,885.5C455.5,885.5,455.5,769.5,440.5,769.5L318.5,769.5"></path><path id="kity_path_526" fill="none" stroke="rgb(115, 161, 191)" stroke-width="1" d="M470.5,885.5C455.5,885.5,455.5,821.5,440.5,821.5L204.5,821.5"></path><path id="kity_path_534" fill="none" stroke="rgb(115, 161, 191)" stroke-width="1" d="M470.5,885.5C455.5,885.5,455.5,873.5,440.5,873.5L146.5,873.5"></path><path id="kity_path_542" fill="none" stroke="rgb(115, 161, 191)" stroke-width="1" d="M470.5,885.5C455.5,885.5,455.5,925.5,440.5,925.5L20.5,925.5"></path><path id="kity_path_550" fill="none" stroke="rgb(115, 161, 191)" stroke-width="1" d="M470.5,885.5C455.5,885.5,455.5,977.5,440.5,977.5L151.5,977.5"></path><path id="kity_path_558" fill="none" stroke="rgb(115, 161, 191)" stroke-width="1" d="M470.5,885.5C455.5,885.5,455.5,1029.5,440.5,1029.5L137.5,1029.5"></path><path id="kity_path_566" fill="none" stroke="rgb(115, 161, 191)" stroke-width="1" d="M470.5,885.5C455.5,885.5,455.5,1081.5,440.5,1081.5L147.5,1081.5"></path></g><g id="minder_node1"><path id="node_outline1" fill="rgb(115, 161, 191)" stroke="rgb(115, 161, 191)" d="M692.5,639.5h112a5,5,0,0,1,5,5v30a5,5,0,0,1,-5,5h-112a5,5,0,0,1,-5,-5v-30a5,5,0,0,1,5,-5z" stroke-width="3"></path><g id="node_text1" fill="white"><text id="kity_text_22" text-rendering="inherit" font-size="16" dy=".8em" y="648.939998626709" x="711.5">Node类型</text></g></g><g id="kity_g_12" display="none"><path id="kity_path_13" fill="none" stroke="none" d="M711.5,659.5h0v0h0z"></path></g><g id="kity_g_14" display="none"><path id="kity_path_15" fill="rgba(0, 92, 153, 0.5)" stroke="none" d="M273.5,812.5h159v15h-159z"></path><path id="kity_path_16" fill="none" stroke="rgb(0, 76, 128)" d="M273.5,812.5L432.5,812.5" stroke-width="1"></path></g><g id="minder_node2" opacity="1"><g id="node_expander1" style="cursor: pointer;"><path id="kity_path_36" fill="white" stroke="gray" d="M928.5,349.5A6,6,0,1,1,916.5,349.5A6,6,0,1,1,928.5,349.5"></path><path id="kity_path_37" fill="none" stroke="gray" d="M918,349.5L927,349.5"></path></g><path id="node_outline2" fill="rgb(238, 243, 246)" stroke="rgb(115, 161, 191)" d="M932.5,336.5h132a3,3,0,0,1,3,3v20a3,3,0,0,1,-3,3h-132a3,3,0,0,1,-3,-3v-20a3,3,0,0,1,3,-3z" stroke-width="1"></path><g id="node_text2" fill="black"><text id="kity_text_33" text-rendering="inherit" font-size="14" dy=".8em" y="340.2599983215332" x="949.5">Document类型</text></g></g><g id="minder_node9" opacity="1"><g id="node_expander8" style="cursor: pointer;"><path id="kity_path_92" fill="white" stroke="gray" d="M1107.5,343.5A6,6,0,1,1,1095.5,343.5A6,6,0,1,1,1107.5,343.5"></path><path id="kity_path_93" fill="none" stroke="gray" d="M1097,343.5L1106,343.5"></path></g><path id="node_outline9" fill="none" stroke="none" d="M1112.5,332.5h69a5,5,0,0,1,5,5v12a5,5,0,0,1,-5,5h-69a5,5,0,0,1,-5,-5v-12a5,5,0,0,1,5,-5z" stroke-width="3"></path><g id="node_text9" fill="black"><text id="kity_text_89" text-rendering="inherit" font-size="12" dy=".8em" y="335.5800018310547" x="1117.5">document</text></g></g><g id="minder_node10"><g id="node_expander9" style="cursor: pointer;" display="none"><path id="kity_path_100" fill="white" stroke="gray" d="M1226.5,31.5A6,6,0,1,1,1214.5,31.5A6,6,0,1,1,1226.5,31.5"></path><path id="kity_path_101" fill="none" stroke="gray"></path></g><path id="node_outline10" fill="none" stroke="none" d="M1231.5,20.5h124a5,5,0,0,1,5,5v12a5,5,0,0,1,-5,5h-124a5,5,0,0,1,-5,-5v-12a5,5,0,0,1,5,-5z" stroke-width="3"></path><g id="node_text10" fill="black"><text id="kity_text_97" text-rendering="inherit" font-size="12" dy=".8em" y="23.580001831054688" x="1236.5">body&#xa0; 获取body元素</text></g></g><g id="minder_node11"><g id="node_expander10" style="cursor: pointer;" display="none"><path id="kity_path_108" fill="white" stroke="gray" d="M1226.5,83.5A6,6,0,1,1,1214.5,83.5A6,6,0,1,1,1226.5,83.5"></path><path id="kity_path_109" fill="none" stroke="gray"></path></g><path id="node_outline11" fill="none" stroke="none" d="M1231.5,72.5h169a5,5,0,0,1,5,5v12a5,5,0,0,1,-5,5h-169a5,5,0,0,1,-5,-5v-12a5,5,0,0,1,5,-5z" stroke-width="3"></path><g id="node_text11" fill="black"><text id="kity_text_105" text-rendering="inherit" font-size="12" dy=".8em" y="75.58000183105469" x="1236.5">documentElement html元素</text></g></g><g id="minder_node12"><g id="node_expander11" style="cursor: pointer;" display="none"><path id="kity_path_116" fill="white" stroke="gray" d="M1226.5,135.5A6,6,0,1,1,1214.5,135.5A6,6,0,1,1,1226.5,135.5"></path><path id="kity_path_117" fill="none" stroke="gray"></path></g><path id="node_outline12" fill="none" stroke="none" d="M1231.5,124.5h167a5,5,0,0,1,5,5v12a5,5,0,0,1,-5,5h-167a5,5,0,0,1,-5,-5v-12a5,5,0,0,1,5,-5z" stroke-width="3"></path><g id="node_text12" fill="black"><text id="kity_text_113" text-rendering="inherit" font-size="12" dy=".8em" y="127.58000183105469" x="1236.5">doctype &lt;!DOCTYPE html&gt;</text></g></g><g id="minder_node13"><g id="node_expander12" style="cursor: pointer;" display="none"><path id="kity_path_124" fill="white" stroke="gray" d="M1226.5,187.5A6,6,0,1,1,1214.5,187.5A6,6,0,1,1,1226.5,187.5"></path><path id="kity_path_125" fill="none" stroke="gray"></path></g><path id="node_outline13" fill="none" stroke="none" d="M1231.5,176.5h130a5,5,0,0,1,5,5v12a5,5,0,0,1,-5,5h-130a5,5,0,0,1,-5,-5v-12a5,5,0,0,1,5,-5z" stroke-width="3"></path><g id="node_text13" fill="black"><text id="kity_text_121" text-rendering="inherit" font-size="12" dy=".8em" y="179.5800018310547" x="1236.5">images&#xa0; 所有图片元素</text></g></g><g id="minder_node14"><g id="node_expander13" style="cursor: pointer;" display="none"><path id="kity_path_132" fill="white" stroke="gray" d="M1226.5,239.5A6,6,0,1,1,1214.5,239.5A6,6,0,1,1,1226.5,239.5"></path><path id="kity_path_133" fill="none" stroke="gray"></path></g><path id="node_outline14" fill="none" stroke="none" d="M1231.5,228.5h145a5,5,0,0,1,5,5v12a5,5,0,0,1,-5,5h-145a5,5,0,0,1,-5,-5v-12a5,5,0,0,1,5,-5z" stroke-width="3"></path><g id="node_text14" fill="black"><text id="kity_text_129" text-rendering="inherit" font-size="12" dy=".8em" y="231.5800018310547" x="1236.5">links&#xa0; 有href属性的a标签</text></g></g><g id="minder_node15"><g id="node_expander14" style="cursor: pointer;" display="none"><path id="kity_path_140" fill="white" stroke="gray" d="M1226.5,291.5A6,6,0,1,1,1214.5,291.5A6,6,0,1,1,1226.5,291.5"></path><path id="kity_path_141" fill="none" stroke="gray"></path></g><path id="node_outline15" fill="none" stroke="none" d="M1231.5,280.5h162a5,5,0,0,1,5,5v12a5,5,0,0,1,-5,5h-162a5,5,0,0,1,-5,-5v-12a5,5,0,0,1,5,-5z" stroke-width="3"></path><g id="node_text15" fill="black"><text id="kity_text_137" text-rendering="inherit" font-size="12" dy=".8em" y="283.5800018310547" x="1236.5">forms&#xa0; 获取所有的form表单</text></g></g><g id="minder_node16" opacity="1"><g id="node_expander15" style="cursor: pointer;"><path id="kity_path_148" fill="white" stroke="gray" d="M1227.5,345.5A6,6,0,1,1,1215.5,345.5A6,6,0,1,1,1227.5,345.5"></path><path id="kity_path_149" fill="none" stroke="gray" d="M1217,345.5L1226,345.5"></path></g><path id="node_outline16" fill="none" stroke="none" d="M1232.5,334.5h138a5,5,0,0,1,5,5v12a5,5,0,0,1,-5,5h-138a5,5,0,0,1,-5,-5v-12a5,5,0,0,1,5,-5z" stroke-width="3"></path><g id="node_text16" fill="black"><text id="kity_text_145" text-rendering="inherit" font-size="12" dy=".8em" y="337.5800018310547" x="1237.5">getElementById('id值')</text></g></g><g id="minder_node17"><g id="node_expander16" style="cursor: pointer;" display="none"><path id="kity_path_157" fill="white" stroke="gray" d="M1415.5,345.5A6,6,0,1,1,1403.5,345.5A6,6,0,1,1,1415.5,345.5"></path><path id="kity_path_158" fill="none" stroke="gray"></path></g><path id="node_outline17" fill="none" stroke="none" d="M1420.5,334.5h169a5,5,0,0,1,5,5v12a5,5,0,0,1,-5,5h-169a5,5,0,0,1,-5,-5v-12a5,5,0,0,1,5,-5z"></path><g id="node_text17" fill="black"><text id="kity_text_154" text-rendering="inherit" font-size="12" dy=".8em" y="337.5800018310547" x="1425.5">&#xa0;&#xa0;&#xa0;&#xa0; 返回一个元素节点或者null</text></g></g><g id="minder_node18"><g id="node_expander17" style="cursor: pointer;"><path id="kity_path_167" fill="white" stroke="gray" d="M1226.5,395.5A6,6,0,1,1,1214.5,395.5A6,6,0,1,1,1226.5,395.5"></path><path id="kity_path_168" fill="none" stroke="gray" d="M1216,395.5L1225,395.5"></path></g><path id="node_outline18" fill="none" stroke="none" d="M1231.5,384.5h195a5,5,0,0,1,5,5v12a5,5,0,0,1,-5,5h-195a5,5,0,0,1,-5,-5v-12a5,5,0,0,1,5,-5z" stroke-width="3"></path><g id="node_text18" fill="black"><text id="kity_text_164" text-rendering="inherit" font-size="12" dy=".8em" y="387.5800018310547" x="1236.5">getElementsByTagName('class');</text></g></g><g id="minder_node19"><g id="node_expander18" style="cursor: pointer;" display="none"><path id="kity_path_176" fill="white" stroke="gray" d="M1471.5,395.5A6,6,0,1,1,1459.5,395.5A6,6,0,1,1,1471.5,395.5"></path><path id="kity_path_177" fill="none" stroke="gray"></path></g><path id="node_outline19" fill="none" stroke="none" d="M1476.5,384.5h112a5,5,0,0,1,5,5v12a5,5,0,0,1,-5,5h-112a5,5,0,0,1,-5,-5v-12a5,5,0,0,1,5,-5z"></path><g id="node_text19" fill="black"><text id="kity_text_173" text-rendering="inherit" font-size="12" dy=".8em" y="387.5800018310547" x="1481.5">&#xa0;&#xa0;&#xa0;&#xa0; 返回类数组对象</text></g></g><g id="minder_node20"><g id="node_expander19" style="cursor: pointer;"><path id="kity_path_184" fill="white" stroke="gray" d="M1226.5,447.5A6,6,0,1,1,1214.5,447.5A6,6,0,1,1,1226.5,447.5"></path><path id="kity_path_185" fill="none" stroke="gray" d="M1216,447.5L1225,447.5"></path></g><path id="node_outline20" fill="none" stroke="none" d="M1231.5,436.5h206a5,5,0,0,1,5,5v12a5,5,0,0,1,-5,5h-206a5,5,0,0,1,-5,-5v-12a5,5,0,0,1,5,-5z" stroke-width="3"></path><g id="node_text20" fill="black"><text id="kity_text_181" text-rendering="inherit" font-size="12" dy=".8em" y="439.5800018310547" x="1236.5">&#xa0;getElementsByClassName('class');</text></g></g><g id="minder_node22"><g id="node_expander21" style="cursor: pointer;" display="none"><path id="kity_path_202" fill="white" stroke="gray" d="M1482.5,447.5A6,6,0,1,1,1470.5,447.5A6,6,0,1,1,1482.5,447.5"></path><path id="kity_path_203" fill="none" stroke="gray"></path></g><path id="node_outline22" fill="none" stroke="none" d="M1487.5,436.5h112a5,5,0,0,1,5,5v12a5,5,0,0,1,-5,5h-112a5,5,0,0,1,-5,-5v-12a5,5,0,0,1,5,-5z"></path><g id="node_text22" fill="black"><text id="kity_text_199" text-rendering="inherit" font-size="12" dy=".8em" y="439.5800018310547" x="1492.5">&#xa0;&#xa0;&#xa0;&#xa0; 返回类数组对象</text></g></g><g id="minder_node23"><g id="node_expander22" style="cursor: pointer;"><path id="kity_path_210" fill="white" stroke="gray" d="M1226.5,499.5A6,6,0,1,1,1214.5,499.5A6,6,0,1,1,1226.5,499.5"></path><path id="kity_path_211" fill="none" stroke="gray" d="M1216,499.5L1225,499.5"></path></g><path id="node_outline23" fill="none" stroke="none" d="M1231.5,488.5h179a5,5,0,0,1,5,5v12a5,5,0,0,1,-5,5h-179a5,5,0,0,1,-5,-5v-12a5,5,0,0,1,5,-5z" stroke-width="3"></path><g id="node_text23" fill="black"><text id="kity_text_207" text-rendering="inherit" font-size="12" dy=".8em" y="491.5800018310547" x="1236.5">getElementsByName('name');</text></g></g><g id="minder_node24"><g id="node_expander23" style="cursor: pointer;" display="none"><path id="kity_path_219" fill="white" stroke="gray" d="M1455.5,499.5A6,6,0,1,1,1443.5,499.5A6,6,0,1,1,1455.5,499.5"></path><path id="kity_path_220" fill="none" stroke="gray"></path></g><path id="node_outline24" fill="none" stroke="none" d="M1460.5,488.5h112a5,5,0,0,1,5,5v12a5,5,0,0,1,-5,5h-112a5,5,0,0,1,-5,-5v-12a5,5,0,0,1,5,-5z"></path><g id="node_text24" fill="black"><text id="kity_text_216" text-rendering="inherit" font-size="12" dy=".8em" y="491.5800018310547" x="1465.5">&#xa0;&#xa0;&#xa0;&#xa0; 返回类数组对象</text></g></g><g id="minder_node25"><g id="node_expander24" style="cursor: pointer;"><path id="kity_path_227" fill="white" stroke="gray" d="M1226.5,551.5A6,6,0,1,1,1214.5,551.5A6,6,0,1,1,1226.5,551.5"></path><path id="kity_path_228" fill="none" stroke="gray" d="M1216,551.5L1225,551.5"></path></g><path id="node_outline25" fill="none" stroke="none" d="M1231.5,540.5h142a5,5,0,0,1,5,5v12a5,5,0,0,1,-5,5h-142a5,5,0,0,1,-5,-5v-12a5,5,0,0,1,5,-5z" stroke-width="3"></path><g id="node_text25" fill="black"><text id="kity_text_224" text-rendering="inherit" font-size="12" dy=".8em" y="543.5800018310547" x="1236.5">createElement('标签名')</text></g></g><g id="minder_node26"><g id="node_expander25" style="cursor: pointer;" display="none"><path id="kity_path_236" fill="white" stroke="gray" d="M1418.5,551.5A6,6,0,1,1,1406.5,551.5A6,6,0,1,1,1418.5,551.5"></path><path id="kity_path_237" fill="none" stroke="gray"></path></g><path id="node_outline26" fill="none" stroke="none" d="M1423.5,540.5h100a5,5,0,0,1,5,5v12a5,5,0,0,1,-5,5h-100a5,5,0,0,1,-5,-5v-12a5,5,0,0,1,5,-5z"></path><g id="node_text26" fill="black"><text id="kity_text_233" text-rendering="inherit" font-size="12" dy=".8em" y="543.5800018310547" x="1428.5">&#xa0;&#xa0;&#xa0;&#xa0; 创建元素节点</text></g></g><g id="minder_node27"><g id="node_expander26" style="cursor: pointer;"><path id="kity_path_244" fill="white" stroke="gray" d="M1226.5,603.5A6,6,0,1,1,1214.5,603.5A6,6,0,1,1,1226.5,603.5"></path><path id="kity_path_245" fill="none" stroke="gray" d="M1216,603.5L1225,603.5"></path></g><path id="node_outline27" fill="none" stroke="none" d="M1231.5,592.5h140a5,5,0,0,1,5,5v12a5,5,0,0,1,-5,5h-140a5,5,0,0,1,-5,-5v-12a5,5,0,0,1,5,-5z" stroke-width="3"></path><g id="node_text27" fill="black"><text id="kity_text_241" text-rendering="inherit" font-size="12" dy=".8em" y="595.5800018310547" x="1236.5">createTextNode('文本')</text></g></g><g id="minder_node28"><g id="node_expander27" style="cursor: pointer;" display="none"><path id="kity_path_253" fill="white" stroke="gray" d="M1416.5,603.5A6,6,0,1,1,1404.5,603.5A6,6,0,1,1,1416.5,603.5"></path><path id="kity_path_254" fill="none" stroke="gray"></path></g><path id="node_outline28" fill="none" stroke="none" d="M1421.5,592.5h100a5,5,0,0,1,5,5v12a5,5,0,0,1,-5,5h-100a5,5,0,0,1,-5,-5v-12a5,5,0,0,1,5,-5z"></path><g id="node_text28" fill="black"><text id="kity_text_250" text-rendering="inherit" font-size="12" dy=".8em" y="595.5800018310547" x="1426.5">&#xa0;&#xa0;&#xa0;&#xa0; 创建文本节点</text></g></g><g id="minder_node29"><g id="node_expander28" style="cursor: pointer;"><path id="kity_path_261" fill="white" stroke="gray" d="M1226.5,655.5A6,6,0,1,1,1214.5,655.5A6,6,0,1,1,1226.5,655.5"></path><path id="kity_path_262" fill="none" stroke="gray" d="M1216,655.5L1225,655.5"></path></g><path id="node_outline29" fill="none" stroke="none" d="M1231.5,644.5h147a5,5,0,0,1,5,5v12a5,5,0,0,1,-5,5h-147a5,5,0,0,1,-5,-5v-12a5,5,0,0,1,5,-5z" stroke-width="3"></path><g id="node_text29" fill="black"><text id="kity_text_258" text-rendering="inherit" font-size="12" dy=".8em" y="647.5800018310547" x="1236.5">createAttribute('属性名')</text></g></g><g id="minder_node30"><g id="node_expander29" style="cursor: pointer;" display="none"><path id="kity_path_270" fill="white" stroke="gray" d="M1423.5,655.5A6,6,0,1,1,1411.5,655.5A6,6,0,1,1,1423.5,655.5"></path><path id="kity_path_271" fill="none" stroke="gray"></path></g><path id="node_outline30" fill="none" stroke="none" d="M1428.5,644.5h100a5,5,0,0,1,5,5v12a5,5,0,0,1,-5,5h-100a5,5,0,0,1,-5,-5v-12a5,5,0,0,1,5,-5z"></path><g id="node_text30" fill="black"><text id="kity_text_267" text-rendering="inherit" font-size="12" dy=".8em" y="647.5800018310547" x="1433.5">&#xa0;&#xa0;&#xa0;&#xa0; 创建属性节点</text></g></g><g id="minder_node31"><g id="node_expander30" style="cursor: pointer;"><path id="kity_path_278" fill="white" stroke="gray" d="M928.5,970.5A6,6,0,1,1,916.5,970.5A6,6,0,1,1,928.5,970.5"></path><path id="kity_path_279" fill="none" stroke="gray" d="M918,970.5L927,970.5"></path></g><path id="node_outline31" fill="rgb(238, 243, 246)" stroke="rgb(115, 161, 191)" d="M932.5,957.5h117a3,3,0,0,1,3,3v20a3,3,0,0,1,-3,3h-117a3,3,0,0,1,-3,-3v-20a3,3,0,0,1,3,-3z" stroke-width="1"></path><g id="node_text31" fill="black"><text id="kity_text_275" text-rendering="inherit" font-size="14" dy=".8em" y="961.2599983215332" x="949.5">Element类型</text></g></g><g id="minder_node32"><g id="node_expander31" style="cursor: pointer;" display="none"><path id="kity_path_286" fill="white" stroke="gray" d="M1092.5,723.5A6,6,0,1,1,1080.5,723.5A6,6,0,1,1,1092.5,723.5"></path><path id="kity_path_287" fill="none" stroke="gray"></path></g><path id="node_outline32" fill="none" stroke="none" d="M1097.5,712.5h199a5,5,0,0,1,5,5v12a5,5,0,0,1,-5,5h-199a5,5,0,0,1,-5,-5v-12a5,5,0,0,1,5,-5z" stroke-width="3"></path><g id="node_text32" fill="black"><text id="kity_text_283" text-rendering="inherit" font-size="12" dy=".8em" y="715.5800018310547" x="1102.5">children&#xa0;&#xa0; 获取所有的元素孩子节点</text></g></g><g id="minder_node33"><g id="node_expander32" style="cursor: pointer;" display="none"><path id="kity_path_294" fill="white" stroke="gray" d="M1092.5,775.5A6,6,0,1,1,1080.5,775.5A6,6,0,1,1,1092.5,775.5"></path><path id="kity_path_295" fill="none" stroke="gray"></path></g><path id="node_outline33" fill="none" stroke="none" d="M1097.5,764.5h227a5,5,0,0,1,5,5v12a5,5,0,0,1,-5,5h-227a5,5,0,0,1,-5,-5v-12a5,5,0,0,1,5,-5z" stroke-width="3"></path><g id="node_text33" fill="black"><text id="kity_text_291" text-rendering="inherit" font-size="12" dy=".8em" y="767.5800018310547" x="1102.5">firstElementChild&#xa0;&#xa0; 第一个元素孩子节点</text></g></g><g id="minder_node34"><g id="node_expander33" style="cursor: pointer;" display="none"><path id="kity_path_302" fill="white" stroke="gray" d="M1092.5,827.5A6,6,0,1,1,1080.5,827.5A6,6,0,1,1,1092.5,827.5"></path><path id="kity_path_303" fill="none" stroke="gray"></path></g><path id="node_outline34" fill="none" stroke="none" d="M1097.5,816.5h233a5,5,0,0,1,5,5v12a5,5,0,0,1,-5,5h-233a5,5,0,0,1,-5,-5v-12a5,5,0,0,1,5,-5z" stroke-width="3"></path><g id="node_text34" fill="black"><text id="kity_text_299" text-rendering="inherit" font-size="12" dy=".8em" y="819.5800018310547" x="1102.5">lastElementChild&#xa0; 最后一个元素孩子节点</text></g></g><g id="minder_node35"><g id="node_expander34" style="cursor: pointer;" display="none"><path id="kity_path_310" fill="white" stroke="gray" d="M1092.5,879.5A6,6,0,1,1,1080.5,879.5A6,6,0,1,1,1092.5,879.5"></path><path id="kity_path_311" fill="none" stroke="gray"></path></g><path id="node_outline35" fill="none" stroke="none" d="M1097.5,868.5h236a5,5,0,0,1,5,5v12a5,5,0,0,1,-5,5h-236a5,5,0,0,1,-5,-5v-12a5,5,0,0,1,5,-5z" stroke-width="3"></path><g id="node_text35" fill="black"><text id="kity_text_307" text-rendering="inherit" font-size="12" dy=".8em" y="871.5800018310547" x="1102.5">nextElementSibling&#xa0; 下一个元素兄弟节点</text></g></g><g id="minder_node36"><g id="node_expander35" style="cursor: pointer;" display="none"><path id="kity_path_318" fill="white" stroke="gray" d="M1092.5,931.5A6,6,0,1,1,1080.5,931.5A6,6,0,1,1,1092.5,931.5"></path><path id="kity_path_319" fill="none" stroke="gray"></path></g><path id="node_outline36" fill="none" stroke="none" d="M1097.5,920.5h257a5,5,0,0,1,5,5v12a5,5,0,0,1,-5,5h-257a5,5,0,0,1,-5,-5v-12a5,5,0,0,1,5,-5z" stroke-width="3"></path><g id="node_text36" fill="black"><text id="kity_text_315" text-rendering="inherit" font-size="12" dy=".8em" y="923.5800018310547" x="1102.5">previousElementSibling 上一个元素兄弟节点</text></g></g><g id="minder_node37"><g id="node_expander36" style="cursor: pointer;"><path id="kity_path_326" fill="white" stroke="gray" d="M1092.5,983.5A6,6,0,1,1,1080.5,983.5A6,6,0,1,1,1092.5,983.5"></path><path id="kity_path_327" fill="none" stroke="gray" d="M1082,983.5L1091,983.5"></path></g><path id="node_outline37" fill="none" stroke="none" d="M1097.5,972.5h130a5,5,0,0,1,5,5v12a5,5,0,0,1,-5,5h-130a5,5,0,0,1,-5,-5v-12a5,5,0,0,1,5,-5z" stroke-width="3"></path><g id="node_text37" fill="black"><text id="kity_text_323" text-rendering="inherit" font-size="12" dy=".8em" y="975.5800018310547" x="1102.5">appendChild(子节点);</text></g></g><g id="minder_node38"><g id="node_expander37" style="cursor: pointer;" display="none"><path id="kity_path_335" fill="white" stroke="gray" d="M1272.5,983.5A6,6,0,1,1,1260.5,983.5A6,6,0,1,1,1272.5,983.5"></path><path id="kity_path_336" fill="none" stroke="gray"></path></g><path id="node_outline38" fill="none" stroke="none" d="M1277.5,972.5h117a5,5,0,0,1,5,5v12a5,5,0,0,1,-5,5h-117a5,5,0,0,1,-5,-5v-12a5,5,0,0,1,5,-5z"></path><g id="node_text38" fill="black"><text id="kity_text_332" text-rendering="inherit" font-size="12" dy=".8em" y="975.5800018310547" x="1282.5">&#xa0;&#xa0; 追加子节点到末尾</text></g></g><g id="minder_node39"><g id="node_expander38" style="cursor: pointer;"><path id="kity_path_343" fill="white" stroke="gray" d="M1092.5,1035.5A6,6,0,1,1,1080.5,1035.5A6,6,0,1,1,1092.5,1035.5"></path><path id="kity_path_344" fill="none" stroke="gray" d="M1082,1035.5L1091,1035.5"></path></g><path id="node_outline39" fill="none" stroke="none" d="M1097.5,1024.5h172a5,5,0,0,1,5,5v12a5,5,0,0,1,-5,5h-172a5,5,0,0,1,-5,-5v-12a5,5,0,0,1,5,-5z" stroke-width="3"></path><g id="node_text39" fill="black"><text id="kity_text_340" text-rendering="inherit" font-size="12" dy=".8em" y="1027.5800018310547" x="1102.5">insertBefore(节点，位置节点)</text></g></g><g id="minder_node40"><g id="node_expander39" style="cursor: pointer;" display="none"><path id="kity_path_352" fill="white" stroke="gray" d="M1314.5,1035.5A6,6,0,1,1,1302.5,1035.5A6,6,0,1,1,1314.5,1035.5"></path><path id="kity_path_353" fill="none" stroke="gray"></path></g><path id="node_outline40" fill="none" stroke="none" d="M1319.5,1024.5h165a5,5,0,0,1,5,5v12a5,5,0,0,1,-5,5h-165a5,5,0,0,1,-5,-5v-12a5,5,0,0,1,5,-5z"></path><g id="node_text40" fill="black"><text id="kity_text_349" text-rendering="inherit" font-size="12" dy=".8em" y="1027.5800018310547" x="1324.5">&#xa0;&#xa0; 将节点插入到位置节点之前</text></g></g><g id="minder_node41"><g id="node_expander40" style="cursor: pointer;"><path id="kity_path_360" fill="white" stroke="gray" d="M1092.5,1087.5A6,6,0,1,1,1080.5,1087.5A6,6,0,1,1,1092.5,1087.5"></path><path id="kity_path_361" fill="none" stroke="gray" d="M1082,1087.5L1091,1087.5"></path></g><path id="node_outline41" fill="none" stroke="none" d="M1097.5,1076.5h173a5,5,0,0,1,5,5v12a5,5,0,0,1,-5,5h-173a5,5,0,0,1,-5,-5v-12a5,5,0,0,1,5,-5z" stroke-width="3"></path><g id="node_text41" fill="black"><text id="kity_text_357" text-rendering="inherit" font-size="12" dy=".8em" y="1079.5800018310547" x="1102.5">replaceChild(新节点，旧节点)</text></g></g><g id="minder_node42"><g id="node_expander41" style="cursor: pointer;" display="none"><path id="kity_path_369" fill="white" stroke="gray" d="M1315.5,1087.5A6,6,0,1,1,1303.5,1087.5A6,6,0,1,1,1315.5,1087.5"></path><path id="kity_path_370" fill="none" stroke="gray"></path></g><path id="node_outline42" fill="none" stroke="none" d="M1320.5,1076.5h141a5,5,0,0,1,5,5v12a5,5,0,0,1,-5,5h-141a5,5,0,0,1,-5,-5v-12a5,5,0,0,1,5,-5z"></path><g id="node_text42" fill="black"><text id="kity_text_366" text-rendering="inherit" font-size="12" dy=".8em" y="1079.5800018310547" x="1325.5">&#xa0;&#xa0; 使用新节点替换旧节点</text></g></g><g id="minder_node43"><g id="node_expander42" style="cursor: pointer;"><path id="kity_path_377" fill="white" stroke="gray" d="M1092.5,1139.5A6,6,0,1,1,1080.5,1139.5A6,6,0,1,1,1092.5,1139.5"></path><path id="kity_path_378" fill="none" stroke="gray" d="M1082,1139.5L1091,1139.5"></path></g><path id="node_outline43" fill="none" stroke="none" d="M1097.5,1128.5h118a5,5,0,0,1,5,5v12a5,5,0,0,1,-5,5h-118a5,5,0,0,1,-5,-5v-12a5,5,0,0,1,5,-5z" stroke-width="3"></path><g id="node_text43" fill="black"><text id="kity_text_374" text-rendering="inherit" font-size="12" dy=".8em" y="1131.5800018310547" x="1102.5">removeChild(节点);</text></g></g><g id="minder_node44"><g id="node_expander43" style="cursor: pointer;" display="none"><path id="kity_path_386" fill="white" stroke="gray" d="M1260.5,1139.5A6,6,0,1,1,1248.5,1139.5A6,6,0,1,1,1260.5,1139.5"></path><path id="kity_path_387" fill="none" stroke="gray"></path></g><path id="node_outline44" fill="none" stroke="none" d="M1265.5,1128.5h69a5,5,0,0,1,5,5v12a5,5,0,0,1,-5,5h-69a5,5,0,0,1,-5,-5v-12a5,5,0,0,1,5,-5z"></path><g id="node_text44" fill="black"><text id="kity_text_383" text-rendering="inherit" font-size="12" dy=".8em" y="1131.5800018310547" x="1270.5">&#xa0;&#xa0; 删除节点</text></g></g><g id="minder_node46"><g id="node_expander45" style="cursor: pointer;"><path id="kity_path_402" fill="white" stroke="gray" d="M1092.5,1217.5A6,6,0,1,1,1080.5,1217.5A6,6,0,1,1,1092.5,1217.5"></path><path id="kity_path_403" fill="none" stroke="gray" d="M1082,1217.5L1091,1217.5"></path></g><path id="node_outline46" fill="none" stroke="none" d="M1097.5,1206.5h187a5,5,0,0,1,5,5v12a5,5,0,0,1,-5,5h-187a5,5,0,0,1,-5,-5v-12a5,5,0,0,1,5,-5z" stroke-width="3"></path><g id="node_text46" fill="black"><text id="kity_text_399" text-rendering="inherit" font-size="12" dy=".8em" y="1209.5800018310547" x="1102.5">cloneNode(true/false);克隆节点</text></g></g><g id="minder_node47"><g id="node_expander46" style="cursor: pointer;" display="none"><path id="kity_path_410" fill="white" stroke="gray" d="M1329.5,1191.5A6,6,0,1,1,1317.5,1191.5A6,6,0,1,1,1329.5,1191.5"></path><path id="kity_path_411" fill="none" stroke="gray"></path></g><path id="node_outline47" fill="none" stroke="none" d="M1334.5,1180.5h148a5,5,0,0,1,5,5v12a5,5,0,0,1,-5,5h-148a5,5,0,0,1,-5,-5v-12a5,5,0,0,1,5,-5z" stroke-width="3"></path><g id="node_text47" fill="black"><text id="kity_text_407" text-rendering="inherit" font-size="12" dy=".8em" y="1183.5800018310547" x="1339.5">true 深复制 复制孩子节点</text></g></g><g id="minder_node48"><g id="node_expander47" style="cursor: pointer;" display="none"><path id="kity_path_418" fill="white" stroke="gray" d="M1329.5,1243.5A6,6,0,1,1,1317.5,1243.5A6,6,0,1,1,1329.5,1243.5"></path><path id="kity_path_419" fill="none" stroke="gray"></path></g><path id="node_outline48" fill="none" stroke="none" d="M1334.5,1232.5h167a5,5,0,0,1,5,5v12a5,5,0,0,1,-5,5h-167a5,5,0,0,1,-5,-5v-12a5,5,0,0,1,5,-5z" stroke-width="3"></path><g id="node_text48" fill="black"><text id="kity_text_415" text-rendering="inherit" font-size="12" dy=".8em" y="1235.5800018310547" x="1339.5">false 浅复制&#xa0; 不复制孩子节点</text></g></g><g id="minder_node49"><g id="node_expander48" style="cursor: pointer;"><path id="kity_path_426" fill="white" stroke="gray" d="M580.5,433.5A6,6,0,1,1,568.5,433.5A6,6,0,1,1,580.5,433.5"></path><path id="kity_path_427" fill="none" stroke="gray" d="M570,433.5L579,433.5"></path></g><path id="node_outline49" fill="rgb(238, 243, 246)" stroke="rgb(115, 161, 191)" d="M476.5,420.5h88a3,3,0,0,1,3,3v20a3,3,0,0,1,-3,3h-88a3,3,0,0,1,-3,-3v-20a3,3,0,0,1,3,-3z" stroke-width="1"></path><g id="node_text49" fill="black"><text id="kity_text_423" text-rendering="inherit" font-size="14" dy=".8em" y="424.2599983215332" x="493.5">Attr类型</text></g></g><g id="minder_node50"><g id="node_expander49" style="cursor: pointer;" display="none"><path id="kity_path_434" fill="white" stroke="gray" d="M445.5,225.5A6,6,0,1,1,433.5,225.5A6,6,0,1,1,445.5,225.5"></path><path id="kity_path_435" fill="none" stroke="gray"></path></g><path id="node_outline50" fill="none" stroke="none" d="M238.5,214.5h190a5,5,0,0,1,5,5v12a5,5,0,0,1,-5,5h-190a5,5,0,0,1,-5,-5v-12a5,5,0,0,1,5,-5z" stroke-width="3"></path><g id="node_text50" fill="black"><text id="kity_text_431" text-rendering="inherit" font-size="12" dy=".8em" y="217.5800018310547" x="243.5">关于属性的，通过元素节点来获取</text></g></g><g id="minder_node51"><g id="node_expander50" style="cursor: pointer;" display="none"><path id="kity_path_442" fill="white" stroke="gray" d="M445.5,277.5A6,6,0,1,1,433.5,277.5A6,6,0,1,1,445.5,277.5"></path><path id="kity_path_443" fill="none" stroke="gray"></path></g><path id="node_outline51" fill="none" stroke="none" d="M209.5,266.5h219a5,5,0,0,1,5,5v12a5,5,0,0,1,-5,5h-219a5,5,0,0,1,-5,-5v-12a5,5,0,0,1,5,-5z" stroke-width="3"></path><g id="node_text51" fill="black"><text id="kity_text_439" text-rendering="inherit" font-size="12" dy=".8em" y="269.5800018310547" x="214.5">元素节点.id&#xa0; .src&#xa0;&#xa0; .alt&#xa0;&#xa0; .style&#xa0;&#xa0; .onclick</text></g></g><g id="minder_node52"><g id="node_expander51" style="cursor: pointer;" display="none"><path id="kity_path_450" fill="white" stroke="gray" d="M445.5,329.5A6,6,0,1,1,433.5,329.5A6,6,0,1,1,445.5,329.5"></path><path id="kity_path_451" fill="none" stroke="gray"></path></g><path id="node_outline52" fill="none" stroke="none" d="M224.5,318.5h204a5,5,0,0,1,5,5v12a5,5,0,0,1,-5,5h-204a5,5,0,0,1,-5,-5v-12a5,5,0,0,1,5,-5z" stroke-width="3"></path><g id="node_text52" fill="black"><text id="kity_text_447" text-rendering="inherit" font-size="12" dy=".8em" y="321.5800018310547" x="229.5">getAttribute('属性名');&#xa0;&#xa0; 返回属性值</text></g></g><g id="minder_node53"><g id="node_expander52" style="cursor: pointer;" display="none"><path id="kity_path_458" fill="white" stroke="gray" d="M445.5,381.5A6,6,0,1,1,433.5,381.5A6,6,0,1,1,445.5,381.5"></path><path id="kity_path_459" fill="none" stroke="gray"></path></g><path id="node_outline53" fill="none" stroke="none" d="M252.5,370.5h176a5,5,0,0,1,5,5v12a5,5,0,0,1,-5,5h-176a5,5,0,0,1,-5,-5v-12a5,5,0,0,1,5,-5z" stroke-width="3"></path><g id="node_text53" fill="black"><text id="kity_text_455" text-rendering="inherit" font-size="12" dy=".8em" y="373.5800018310547" x="257.5">setAttribute('属性名','属性值');</text></g></g><g id="minder_node54"><g id="node_expander53" style="cursor: pointer;" display="none"><path id="kity_path_466" fill="white" stroke="gray" d="M445.5,433.5A6,6,0,1,1,433.5,433.5A6,6,0,1,1,445.5,433.5"></path><path id="kity_path_467" fill="none" stroke="gray"></path></g><path id="node_outline54" fill="none" stroke="none" d="M270.5,422.5h158a5,5,0,0,1,5,5v12a5,5,0,0,1,-5,5h-158a5,5,0,0,1,-5,-5v-12a5,5,0,0,1,5,-5z" stroke-width="3"></path><g id="node_text54" fill="black"><text id="kity_text_463" text-rendering="inherit" font-size="12" dy=".8em" y="425.5800018310547" x="275.5">removeAttribute('属性名');</text></g></g><g id="minder_node55"><g id="node_expander54" style="cursor: pointer;" display="none"><path id="kity_path_474" fill="white" stroke="gray" d="M445.5,485.5A6,6,0,1,1,433.5,485.5A6,6,0,1,1,445.5,485.5"></path><path id="kity_path_475" fill="none" stroke="gray"></path></g><path id="node_outline55" fill="none" stroke="none" d="M126.5,474.5h302a5,5,0,0,1,5,5v12a5,5,0,0,1,-5,5h-302a5,5,0,0,1,-5,-5v-12a5,5,0,0,1,5,-5z" stroke-width="3"></path><g id="node_text55" fill="black"><text id="kity_text_471" text-rendering="inherit" font-size="12" dy=".8em" y="477.5800018310547" x="131.5">attributes属性&#xa0; 返回所有的属性构成的类数组对象attrs</text></g></g><g id="minder_node56" opacity="1"><g id="node_expander55" style="cursor: pointer;" display="none"><path id="kity_path_482" fill="white" stroke="gray" d="M448.5,528.5A6,6,0,1,1,436.5,528.5A6,6,0,1,1,448.5,528.5"></path><path id="kity_path_483" fill="none" stroke="gray"></path></g><path id="node_outline56" fill="none" stroke="none" d="M210.5,517.5h221a5,5,0,0,1,5,5v12a5,5,0,0,1,-5,5h-221a5,5,0,0,1,-5,-5v-12a5,5,0,0,1,5,-5z" stroke-width="3"></path><g id="node_text56" fill="black"><text id="kity_text_479" text-rendering="inherit" font-size="12" dy=".8em" y="520.5800018310547" x="215.5">getNamedItem('属性名') 返回Attr实例</text></g></g><g id="minder_node57" opacity="1"><g id="node_expander56" style="cursor: pointer;" display="none"><path id="kity_path_491" fill="white" stroke="gray" d="M444.5,570.5A6,6,0,1,1,432.5,570.5A6,6,0,1,1,444.5,570.5"></path><path id="kity_path_492" fill="none" stroke="gray"></path></g><path id="node_outline57" fill="none" stroke="none" d="M278.5,559.5h149a5,5,0,0,1,5,5v12a5,5,0,0,1,-5,5h-149a5,5,0,0,1,-5,-5v-12a5,5,0,0,1,5,-5z" stroke-width="3"></path><g id="node_text57" fill="black"><text id="kity_text_488" text-rendering="inherit" font-size="12" dy=".8em" y="562.5800018310547" x="283.5">setNamedItem(Attr实例)</text></g></g><g id="minder_node58" opacity="1"><g id="node_expander57" style="cursor: pointer;" display="none"><path id="kity_path_499" fill="white" stroke="gray" d="M446.5,613.5A6,6,0,1,1,434.5,613.5A6,6,0,1,1,446.5,613.5"></path><path id="kity_path_500" fill="none" stroke="gray"></path></g><path id="node_outline58" fill="none" stroke="none" d="M257.5,602.5h172a5,5,0,0,1,5,5v12a5,5,0,0,1,-5,5h-172a5,5,0,0,1,-5,-5v-12a5,5,0,0,1,5,-5z" stroke-width="3"></path><g id="node_text58" fill="black"><text id="kity_text_496" text-rendering="inherit" font-size="12" dy=".8em" y="605.5800018310547" x="262.5">removeNamedItem('属性名')</text></g></g><g id="minder_node59"><g id="node_expander58" style="cursor: pointer;"><path id="kity_path_507" fill="white" stroke="gray" d="M580.5,885.5A6,6,0,1,1,568.5,885.5A6,6,0,1,1,580.5,885.5"></path><path id="kity_path_508" fill="none" stroke="gray" d="M570,885.5L579,885.5"></path></g><path id="node_outline59" fill="rgb(238, 243, 246)" stroke="rgb(115, 161, 191)" d="M473.5,872.5h91a3,3,0,0,1,3,3v20a3,3,0,0,1,-3,3h-91a3,3,0,0,1,-3,-3v-20a3,3,0,0,1,3,-3z" stroke-width="1"></path><g id="node_text59" fill="black"><text id="kity_text_504" text-rendering="inherit" font-size="14" dy=".8em" y="876.2599983215332" x="490.5">Text类型</text></g></g><g id="minder_node60"><g id="node_expander59" style="cursor: pointer;" display="none"><path id="kity_path_515" fill="white" stroke="gray" d="M442.5,703.5A6,6,0,1,1,430.5,703.5A6,6,0,1,1,442.5,703.5"></path><path id="kity_path_516" fill="none" stroke="gray"></path></g><path id="node_outline60" fill="none" stroke="none" d="M322.5,692.5h103a5,5,0,0,1,5,5v12a5,5,0,0,1,-5,5h-103a5,5,0,0,1,-5,-5v-12a5,5,0,0,1,5,-5z" stroke-width="3"></path><g id="node_text60" fill="black"><text id="kity_text_512" text-rendering="inherit" font-size="12" dy=".8em" y="695.5800018310547" x="327.5">data&#xa0; 是文本内容</text></g></g><g id="minder_node61"><g id="node_expander60" style="cursor: pointer;" display="none"><path id="kity_path_523" fill="white" stroke="gray" d="M442.5,755.5A6,6,0,1,1,430.5,755.5A6,6,0,1,1,442.5,755.5"></path><path id="kity_path_524" fill="none" stroke="gray"></path></g><path id="node_outline61" fill="none" stroke="none" d="M323.5,744.5h102a5,5,0,0,1,5,5v12a5,5,0,0,1,-5,5h-102a5,5,0,0,1,-5,-5v-12a5,5,0,0,1,5,-5z" stroke-width="3"></path><g id="node_text61" fill="black"><text id="kity_text_520" text-rendering="inherit" font-size="12" dy=".8em" y="747.5800018310547" x="328.5">length&#xa0; 文本长度</text></g></g><g id="minder_node62"><g id="node_expander61" style="cursor: pointer;" display="none"><path id="kity_path_531" fill="white" stroke="gray" d="M442.5,807.5A6,6,0,1,1,430.5,807.5A6,6,0,1,1,442.5,807.5"></path><path id="kity_path_532" fill="none" stroke="gray"></path></g><path id="node_outline62" fill="none" stroke="none" d="M209.5,796.5h216a5,5,0,0,1,5,5v12a5,5,0,0,1,-5,5h-216a5,5,0,0,1,-5,-5v-12a5,5,0,0,1,5,-5z" stroke-width="3"></path><g id="node_text62" fill="black"><text id="kity_text_528" text-rendering="inherit" font-size="12" dy=".8em" y="799.5800018310547" x="214.5">appendData('文本');&#xa0;&#xa0; 追加文本到末尾</text></g></g><g id="minder_node63"><g id="node_expander62" style="cursor: pointer;" display="none"><path id="kity_path_539" fill="white" stroke="gray" d="M442.5,859.5A6,6,0,1,1,430.5,859.5A6,6,0,1,1,442.5,859.5"></path><path id="kity_path_540" fill="none" stroke="gray"></path></g><path id="node_outline63" fill="none" stroke="none" d="M151.5,848.5h274a5,5,0,0,1,5,5v12a5,5,0,0,1,-5,5h-274a5,5,0,0,1,-5,-5v-12a5,5,0,0,1,5,-5z" stroke-width="3"></path><g id="node_text63" fill="black"><text id="kity_text_536" text-rendering="inherit" font-size="12" dy=".8em" y="851.5800018310547" x="156.5">insertData('位置','文本');&#xa0;&#xa0; 将文本追加到位置之前</text></g></g><g id="minder_node64"><g id="node_expander63" style="cursor: pointer;" display="none"><path id="kity_path_547" fill="white" stroke="gray" d="M442.5,911.5A6,6,0,1,1,430.5,911.5A6,6,0,1,1,442.5,911.5"></path><path id="kity_path_548" fill="none" stroke="gray"></path></g><path id="node_outline64" fill="none" stroke="none" d="M25.5,900.5h400a5,5,0,0,1,5,5v12a5,5,0,0,1,-5,5h-400a5,5,0,0,1,-5,-5v-12a5,5,0,0,1,5,-5z" stroke-width="3"></path><g id="node_text64" fill="black"><text id="kity_text_544" text-rendering="inherit" font-size="12" dy=".8em" y="903.5800018310547" x="30.5">replaceData(位置，个数，文本);&#xa0;&#xa0; 使用文本替换从位置开始的多少个字符</text></g></g><g id="minder_node65"><g id="node_expander64" style="cursor: pointer;" display="none"><path id="kity_path_555" fill="white" stroke="gray" d="M442.5,963.5A6,6,0,1,1,430.5,963.5A6,6,0,1,1,442.5,963.5"></path><path id="kity_path_556" fill="none" stroke="gray"></path></g><path id="node_outline65" fill="none" stroke="none" d="M156.5,952.5h269a5,5,0,0,1,5,5v12a5,5,0,0,1,-5,5h-269a5,5,0,0,1,-5,-5v-12a5,5,0,0,1,5,-5z" stroke-width="3"></path><g id="node_text65" fill="black"><text id="kity_text_552" text-rendering="inherit" font-size="12" dy=".8em" y="955.5800018310547" x="161.5">deleteData(位置,个数);&#xa0;&#xa0;&#xa0; 从位置开始删除多少个</text></g></g><g id="minder_node66"><g id="node_expander65" style="cursor: pointer;" display="none"><path id="kity_path_563" fill="white" stroke="gray" d="M442.5,1015.5A6,6,0,1,1,430.5,1015.5A6,6,0,1,1,442.5,1015.5"></path><path id="kity_path_564" fill="none" stroke="gray"></path></g><path id="node_outline66" fill="none" stroke="none" d="M142.5,1004.5h283a5,5,0,0,1,5,5v12a5,5,0,0,1,-5,5h-283a5,5,0,0,1,-5,-5v-12a5,5,0,0,1,5,-5z" stroke-width="3"></path><g id="node_text66" fill="black"><text id="kity_text_560" text-rendering="inherit" font-size="12" dy=".8em" y="1007.5800018310547" x="147.5">substringData(位置,个数);&#xa0;&#xa0; 从位置开始截取多少个</text></g></g><g id="minder_node67"><g id="node_expander66" style="cursor: pointer;" display="none"><path id="kity_path_571" fill="white" stroke="gray" d="M442.5,1067.5A6,6,0,1,1,430.5,1067.5A6,6,0,1,1,442.5,1067.5"></path><path id="kity_path_572" fill="none" stroke="gray"></path></g><path id="node_outline67" fill="none" stroke="none" d="M152.5,1056.5h273a5,5,0,0,1,5,5v12a5,5,0,0,1,-5,5h-273a5,5,0,0,1,-5,-5v-12a5,5,0,0,1,5,-5z" stroke-width="3"></path><g id="node_text67" fill="black"><text id="kity_text_568" text-rendering="inherit" font-size="12" dy=".8em" y="1059.5800018310547" x="157.5">splitText(位置)&#xa0; 将一个Text从位置处分成2个Text</text></g></g></g></g></svg>