<svg id="kity_svg_6" xmlns="http://www.w3.org/2000/svg" xmlns:xlink="http://www.w3.org/1999/xlink" version="1.1" width="1654" height="882" style="background: rgb(251, 251, 251) none repeat scroll 0% 0%; visibility: visible;" viewBox="0 0 1654 882"><defs id="kity_defs_7"><linearGradient id="kity_linearGradient_17" x1="0" y1="0" x2="0" y2="1"><stop id="kity_stop_18" offset="0" stop-color="rgb(255, 255, 255)"></stop><stop id="kity_stop_19" offset="1" stop-color="rgb(204, 204, 204)"></stop></linearGradient><marker id="kity_marker_2" orient="auto" refX="6" refY="0" viewBox="-7 -7 14 14" markerWidth="7" markerHeight="7" markerUnits="userSpaceOnUse"><path id="kity_path_3" fill="rgb(115, 161, 191)" stroke="none" d="M6,0A6,6,0,1,1,-6,0A6,6,0,1,1,6,0"></path></marker></defs><g id="kity_g_8"><g id="minder1" text-rendering="geometricPrecision"><g id="minder_connect_group1"><path id="kity_path_31" fill="none" stroke="rgb(115, 161, 191)" stroke-width="1" d="M827,411.5A158.5,354,0,0,1,985.5,57.5"></path><path id="kity_path_71" fill="none" stroke="rgb(115, 161, 191)" stroke-width="1" d="M1056.5,57.5C1071.5,57.5,1071.5,45.5,1086.5,45.5L1382.5,45.5"></path><path id="kity_path_79" fill="none" stroke="rgb(115, 161, 191)" stroke-width="1" d="M1056.5,57.5C1071.5,57.5,1071.5,97.5,1086.5,97.5L1193.5,97.5"></path><path id="kity_path_87" fill="none" stroke="rgb(115, 161, 191)" stroke-width="1" d="M827,411.5A158.5,213,0,0,1,985.5,198.5"></path><path id="kity_path_95" fill="none" stroke="rgb(115, 161, 191)" stroke-width="1" d="M1056.5,198.5C1071.5,198.5,1071.5,159.5,1086.5,159.5L1385.5,159.5"></path><path id="kity_path_103" fill="none" stroke="rgb(115, 161, 191)" stroke-width="1" d="M1056.5,198.5C1071.5,198.5,1071.5,258.5,1086.5,258.5L1388.5,258.5"></path><path id="kity_path_120" fill="none" stroke="rgb(115, 161, 191)" stroke-width="1" d="M827,411.5A158.5,7,0,0,1,985.5,404.5"></path><path id="kity_path_128" fill="none" stroke="rgb(115, 161, 191)" stroke-width="1" d="M1056.5,404.5C1071.5,404.5,1071.5,413.5,1086.5,413.5L1351.5,413.5"></path><path id="kity_path_144" fill="none" stroke="rgb(115, 161, 191)" stroke-width="1" d="M827,411.5A158.5,178,0,0,0,985.5,589.5"></path><path id="kity_path_152" fill="none" stroke="rgb(115, 161, 191)" stroke-width="1" d="M1056.5,589.5C1071.5,589.5,1071.5,635.5,1086.5,635.5L1634.5,635.5"></path><path id="kity_path_160" fill="none" stroke="rgb(115, 161, 191)" stroke-width="1" d="M827,411.5A158.5,354,0,0,0,985.5,765.5"></path><path id="kity_path_168" fill="none" stroke="rgb(115, 161, 191)" stroke-width="1" d="M1056.5,765.5C1071.5,765.5,1071.5,810.5,1086.5,810.5L1548.5,810.5"></path><path id="kity_path_176" fill="none" stroke="rgb(115, 161, 191)" stroke-width="1" d="M1056.5,765.5C1071.5,765.5,1071.5,862.5,1086.5,862.5L1354.5,862.5"></path><path id="kity_path_193" fill="none" stroke="rgb(115, 161, 191)" stroke-width="1" d="M1056.5,404.5C1071.5,404.5,1071.5,509.5,1086.5,509.5L1432.5,509.5"></path><path id="kity_path_215" fill="none" stroke="rgb(115, 161, 191)" stroke-width="1" d="M827,411.5A158.5,267,0,0,1,668.5,678.5"></path><path id="kity_path_223" fill="none" stroke="rgb(115, 161, 191)" stroke-width="1" d="M543.5,678.5C528.5,678.5,528.5,666.5,513.5,666.5L20.5,666.5"></path><path id="kity_path_231" fill="none" stroke="rgb(115, 161, 191)" stroke-width="1" d="M543.5,678.5C528.5,678.5,528.5,718.5,513.5,718.5L292.5,718.5"></path><path id="kity_path_255" fill="none" stroke="rgb(115, 161, 191)" stroke-width="1" d="M827,411.5A158.5,266,0,0,0,668.5,145.5"></path><path id="kity_path_263" fill="none" stroke="rgb(115, 161, 191)" stroke-width="1" d="M597.5,145.5C582.5,145.5,582.5,231.5,567.5,231.5L304.5,231.5"></path><path id="kity_path_272" fill="none" stroke="rgb(115, 161, 191)" stroke-width="1" d="M827,411.5A158.5,10,0,0,0,668.5,401.5"></path><path id="kity_path_280" fill="none" stroke="rgb(115, 161, 191)" stroke-width="1" d="M589.5,401.5C574.5,401.5,574.5,293.5,559.5,293.5L124.5,293.5"></path><path id="kity_path_288" fill="none" stroke="rgb(115, 161, 191)" stroke-width="1" d="M589.5,401.5C574.5,401.5,574.5,538.5,559.5,538.5L265.5,538.5"></path><path id="kity_path_297" fill="none" stroke="rgb(115, 161, 191)" stroke-width="1" d="M589.5,401.5C574.5,401.5,574.5,345.5,559.5,345.5L366.5,345.5"></path><path id="kity_path_305" fill="none" stroke="rgb(115, 161, 191)" stroke-width="1" d="M827,411.5A158.5,177,0,0,1,668.5,588.5"></path></g><g id="minder_node1"><path id="node_outline1" fill="rgb(115, 161, 191)" stroke="rgb(115, 161, 191)" d="M791.5,391.5h71a5,5,0,0,1,5,5v30a5,5,0,0,1,-5,5h-71a5,5,0,0,1,-5,-5v-30a5,5,0,0,1,5,-5z" stroke-width="3"></path><g id="node_text1" fill="white"><text id="kity_text_22" text-rendering="inherit" font-size="16" dy=".8em" y="400.939998626709" x="810.5">Sass</text></g></g><g id="kity_g_12" display="none"><path id="kity_path_13" fill="none" stroke="none" d="M810.5,411.5h0v0h0z"></path></g><g id="kity_g_14" display="none"><path id="kity_path_15" fill="rgba(0, 92, 153, 0.5)" stroke="none" d="M1096.5,458.5h289v15h-289z"></path><path id="kity_path_16" fill="none" stroke="rgb(0, 76, 128)" d="M1096.5,458.5L1385.5,458.5" stroke-width="1"></path></g><g id="minder_node2"><g id="node_expander1" style="cursor: pointer;"><path id="kity_path_36" fill="white" stroke="gray" d="M986.5,57.5A6,6,0,1,1,974.5,57.5A6,6,0,1,1,986.5,57.5"></path><path id="kity_path_37" fill="none" stroke="gray" d="M976,57.5L985,57.5"></path></g><path id="node_outline2" fill="rgb(238, 243, 246)" stroke="rgb(115, 161, 191)" d="M990.5,44.5h63a3,3,0,0,1,3,3v20a3,3,0,0,1,-3,3h-63a3,3,0,0,1,-3,-3v-20a3,3,0,0,1,3,-3z" stroke-width="1"></path><g id="node_text2" fill="black"><text id="kity_text_33" text-rendering="inherit" font-size="14" dy=".8em" y="48.2599983215332" x="1007.5">定义</text></g></g><g id="minder_node7"><g id="node_expander6" style="cursor: pointer;" display="none"><path id="kity_path_76" fill="white" stroke="gray" d="M1096.5,31.5A6,6,0,1,1,1084.5,31.5A6,6,0,1,1,1096.5,31.5"></path><path id="kity_path_77" fill="none" stroke="gray"></path></g><path id="node_outline7" fill="none" stroke="none" d="M1101.5,20.5h276a5,5,0,0,1,5,5v12a5,5,0,0,1,-5,5h-276a5,5,0,0,1,-5,-5v-12a5,5,0,0,1,5,-5z" stroke-width="3"></path><g id="node_text7" fill="black"><text id="kity_text_73" text-rendering="inherit" font-size="12" dy=".8em" y="23.580001831054688" x="1106.5">Sass 是对 CSS 的扩展，让 CSS 语言更强大、优雅</text></g></g><g id="minder_node8"><g id="node_expander7" style="cursor: pointer;" display="none"><path id="kity_path_84" fill="white" stroke="gray" d="M1096.5,83.5A6,6,0,1,1,1084.5,83.5A6,6,0,1,1,1096.5,83.5"></path><path id="kity_path_85" fill="none" stroke="gray"></path></g><path id="node_outline8" fill="none" stroke="none" d="M1101.5,72.5h87a5,5,0,0,1,5,5v12a5,5,0,0,1,-5,5h-87a5,5,0,0,1,-5,-5v-12a5,5,0,0,1,5,-5z" stroke-width="3"></path><g id="node_text8" fill="black"><text id="kity_text_81" text-rendering="inherit" font-size="12" dy=".8em" y="75.58000183105469" x="1106.5">css的预编译器</text></g></g><g id="minder_node9"><g id="node_expander8" style="cursor: pointer;"><path id="kity_path_92" fill="white" stroke="gray" d="M986.5,198.5A6,6,0,1,1,974.5,198.5A6,6,0,1,1,986.5,198.5"></path><path id="kity_path_93" fill="none" stroke="gray" d="M976,198.5L985,198.5"></path></g><path id="node_outline9" fill="rgb(238, 243, 246)" stroke="rgb(115, 161, 191)" d="M990.5,185.5h63a3,3,0,0,1,3,3v20a3,3,0,0,1,-3,3h-63a3,3,0,0,1,-3,-3v-20a3,3,0,0,1,3,-3z" stroke-width="1"></path><g id="node_text9" fill="black"><text id="kity_text_89" text-rendering="inherit" font-size="14" dy=".8em" y="189.2599983215332" x="1007.5">编译</text></g></g><g id="minder_node10"><g id="node_expander9" style="cursor: pointer;" display="none"><path id="kity_path_100" fill="white" stroke="gray" d="M1096.5,145.5A6,6,0,1,1,1084.5,145.5A6,6,0,1,1,1096.5,145.5"></path><path id="kity_path_101" fill="none" stroke="gray"></path></g><path id="node_outline10" fill="none" stroke="none" d="M1101.5,134.5h279a5,5,0,0,1,5,5v12a5,5,0,0,1,-5,5h-279a5,5,0,0,1,-5,-5v-12a5,5,0,0,1,5,-5z" stroke-width="3"></path><g id="node_text10" fill="black"><text id="kity_text_97" text-rendering="inherit" font-size="12" dy=".8em" y="137.5800018310547" x="1106.5">语法：sass --style compressed test.sass test.css</text></g></g><g id="minder_node11" opacity="1"><g id="node_expander10" style="cursor: pointer;" display="none"><path id="kity_path_108" fill="white" stroke="gray" d="M1096.5,217.5A6,6,0,1,1,1084.5,217.5A6,6,0,1,1,1096.5,217.5"></path><path id="kity_path_109" fill="none" stroke="gray"></path></g><path id="node_outline11" fill="none" stroke="none" d="M1101.5,179.5h282a5,5,0,0,1,5,5v66a5,5,0,0,1,-5,5h-282a5,5,0,0,1,-5,-5v-66a5,5,0,0,1,5,-5z" stroke-width="3"></path><g id="node_text11" fill="black"><text id="kity_text_105" text-rendering="inherit" font-size="12" dy=".8em" y="182.5800018310547" x="1106.5">方式：nested：嵌套缩进的css代码，它是默认值。</text><text id="kity_text_113" text-rendering="inherit" font-size="12" dy=".8em" y="200.5800018310547" x="1106.5">　　&#xa0;&#xa0; expanded：没有缩进的、扩展的css代码。</text><text id="kity_text_114" text-rendering="inherit" font-size="12" dy=".8em" y="218.5800018310547" x="1106.5">　　&#xa0;&#xa0; compact：简洁格式的css代码。</text><text id="kity_text_115" text-rendering="inherit" font-size="12" dy=".8em" y="236.5800018310547" x="1106.5">　　&#xa0;&#xa0; compressed：压缩后的css代码。</text></g></g><g id="minder_node12"><g id="node_expander11" style="cursor: pointer;"><path id="kity_path_125" fill="white" stroke="gray" d="M986.5,404.5A6,6,0,1,1,974.5,404.5A6,6,0,1,1,986.5,404.5"></path><path id="kity_path_126" fill="none" stroke="gray" d="M976,404.5L985,404.5"></path></g><path id="node_outline12" fill="rgb(238, 243, 246)" stroke="rgb(115, 161, 191)" d="M990.5,391.5h63a3,3,0,0,1,3,3v20a3,3,0,0,1,-3,3h-63a3,3,0,0,1,-3,-3v-20a3,3,0,0,1,3,-3z" stroke-width="1"></path><g id="node_text12" fill="black"><text id="kity_text_122" text-rendering="inherit" font-size="14" dy=".8em" y="395.2599983215332" x="1007.5">变量</text></g></g><g id="minder_node13"><g id="node_expander12" style="cursor: pointer;" display="none"><path id="kity_path_133" fill="white" stroke="gray" d="M1096.5,356.5A6,6,0,1,1,1084.5,356.5A6,6,0,1,1,1096.5,356.5"></path><path id="kity_path_134" fill="none" stroke="gray"></path></g><path id="node_outline13" fill="none" stroke="none" d="M1101.5,302.5h245a5,5,0,0,1,5,5v98a5,5,0,0,1,-5,5h-245a5,5,0,0,1,-5,-5v-98a5,5,0,0,1,5,-5z" stroke-width="3"></path><g id="node_text13" fill="black"><text id="kity_text_130" text-rendering="inherit" font-size="12" dy=".8em" y="391.5800018310547" x="1106.5">以$开头，容许定义变量，在属性值直接使用</text></g><image id="kity_image_210" xlink:href="http://kityminder-img.gz.bcebos.com/33607210255713ca44d75f83fe2a999a7505ea04" x="1123.5" y="307.5" width="200" height="81"></image></g><g id="minder_node15"><g id="node_expander14" style="cursor: pointer;"><path id="kity_path_149" fill="white" stroke="gray" d="M986.5,589.5A6,6,0,1,1,974.5,589.5A6,6,0,1,1,986.5,589.5"></path><path id="kity_path_150" fill="none" stroke="gray" d="M976,589.5L985,589.5"></path></g><path id="node_outline15" fill="rgb(238, 243, 246)" stroke="rgb(115, 161, 191)" d="M990.5,576.5h63a3,3,0,0,1,3,3v20a3,3,0,0,1,-3,3h-63a3,3,0,0,1,-3,-3v-20a3,3,0,0,1,3,-3z" stroke-width="1"></path><g id="node_text15" fill="black"><text id="kity_text_146" text-rendering="inherit" font-size="14" dy=".8em" y="580.2599983215332" x="1007.5">计算</text></g></g><g id="minder_node16"><g id="node_expander15" style="cursor: pointer;" display="none"><path id="kity_path_157" fill="white" stroke="gray" d="M1096.5,590A6,6,0,1,1,1084.5,590A6,6,0,1,1,1096.5,590"></path><path id="kity_path_158" fill="none" stroke="gray"></path></g><path id="node_outline16" fill="none" stroke="none" d="M1101.5,547.5h528a5,5,0,0,1,5,5v75a5,5,0,0,1,-5,5h-528a5,5,0,0,1,-5,-5v-75a5,5,0,0,1,5,-5z" stroke-width="3"></path><g id="node_text16" fill="black"><text id="kity_text_154" text-rendering="inherit" font-size="12" dy=".8em" y="613.5800018310547" x="1106.5">Sass可以进行属性值的计算，如margin，width等属性值为数字的则可以写成运算表达式的形式。</text></g><image id="kity_image_212" xlink:href="http://kityminder-img.gz.bcebos.com/07fd64ed0081250918e82816721146f302f009ee" x="1265.5" y="552.5" width="200" height="58"></image></g><g id="minder_node17"><g id="node_expander16" style="cursor: pointer;"><path id="kity_path_165" fill="white" stroke="gray" d="M986.5,765.5A6,6,0,1,1,974.5,765.5A6,6,0,1,1,986.5,765.5"></path><path id="kity_path_166" fill="none" stroke="gray" d="M976,765.5L985,765.5"></path></g><path id="node_outline17" fill="rgb(238, 243, 246)" stroke="rgb(115, 161, 191)" d="M990.5,752.5h63a3,3,0,0,1,3,3v20a3,3,0,0,1,-3,3h-63a3,3,0,0,1,-3,-3v-20a3,3,0,0,1,3,-3z" stroke-width="1"></path><g id="node_text17" fill="black"><text id="kity_text_162" text-rendering="inherit" font-size="14" dy=".8em" y="756.2599983215332" x="1007.5">嵌套</text></g></g><g id="minder_node18"><g id="node_expander17" style="cursor: pointer;" display="none"><path id="kity_path_173" fill="white" stroke="gray" d="M1096.5,739.5A6,6,0,1,1,1084.5,739.5A6,6,0,1,1,1096.5,739.5"></path><path id="kity_path_174" fill="none" stroke="gray"></path></g><path id="node_outline18" fill="none" stroke="none" d="M1101.5,671.5h442a5,5,0,0,1,5,5v126a5,5,0,0,1,-5,5h-442a5,5,0,0,1,-5,-5v-126a5,5,0,0,1,5,-5z" stroke-width="3"></path><g id="node_text18" fill="black"><text id="kity_text_170" text-rendering="inherit" font-size="12" dy=".8em" y="788.5800018310547" x="1106.5">最常用的语法规则，避免了大量选择器的麻烦，可以直接在父元素下嵌套写属性。</text></g><image id="kity_image_213" xlink:href="http://kityminder-img.gz.bcebos.com/0203c6fb1a39b08cdadac6d0385b183ddfd63264" x="1222.5" y="676.5" width="200" height="109"></image></g><g id="minder_node19"><g id="node_expander18" style="cursor: pointer;" display="none"><path id="kity_path_181" fill="white" stroke="gray" d="M1096.5,848.5A6,6,0,1,1,1084.5,848.5A6,6,0,1,1,1096.5,848.5"></path><path id="kity_path_182" fill="none" stroke="gray"></path></g><path id="node_outline19" fill="none" stroke="none" d="M1101.5,837.5h248a5,5,0,0,1,5,5v12a5,5,0,0,1,-5,5h-248a5,5,0,0,1,-5,-5v-12a5,5,0,0,1,5,-5z" stroke-width="3"></path><g id="node_text19" fill="black"><text id="kity_text_178" text-rendering="inherit" font-size="12" dy=".8em" y="840.5800018310547" x="1106.5">在嵌套的代码块内，可以使用&amp;引用父元素。</text></g></g><g id="minder_node21"><g id="node_expander20" style="cursor: pointer;" display="none"><path id="kity_path_198" fill="white" stroke="gray" d="M1096.5,473.5A6,6,0,1,1,1084.5,473.5A6,6,0,1,1,1096.5,473.5"></path><path id="kity_path_199" fill="none" stroke="gray"></path></g><path id="node_outline21" fill="none" stroke="none" d="M1101.5,440.5h326a5,5,0,0,1,5,5v56a5,5,0,0,1,-5,5h-326a5,5,0,0,1,-5,-5v-56a5,5,0,0,1,5,-5z" stroke-width="3"></path><g id="node_text21" fill="black"><text id="kity_text_195" text-rendering="inherit" font-size="12" dy=".8em" y="487.5800018310547" x="1106.5">如果变量需要镶嵌在字符串之中，就必须需要写在#{}之中。</text></g><image id="kity_image_211" xlink:href="http://kityminder-img.gz.bcebos.com/daa6cc44769e121eeeccb675bb5b17400be1f8b1" x="1164.5" y="445.5" width="200" height="39"></image></g><g id="minder_node24"><g id="node_expander22" style="cursor: pointer;"><path id="kity_path_220" fill="white" stroke="gray" d="M679.5,678.5A6,6,0,1,1,667.5,678.5A6,6,0,1,1,679.5,678.5"></path><path id="kity_path_221" fill="none" stroke="gray" d="M669,678.5L678,678.5"></path></g><path id="node_outline23" fill="rgb(238, 243, 246)" stroke="rgb(115, 161, 191)" d="M546.5,665.5h117a3,3,0,0,1,3,3v20a3,3,0,0,1,-3,3h-117a3,3,0,0,1,-3,-3v-20a3,3,0,0,1,3,-3z" stroke-width="1"></path><g id="node_text23" fill="black"><text id="kity_text_217" text-rendering="inherit" font-size="14" dy=".8em" y="669.2599983215332" x="563.5">和scss的区别</text></g></g><g id="minder_node25"><g id="node_expander23" style="cursor: pointer;" display="none"><path id="kity_path_228" fill="white" stroke="gray" d="M515.5,652.5A6,6,0,1,1,503.5,652.5A6,6,0,1,1,515.5,652.5"></path><path id="kity_path_229" fill="none" stroke="gray"></path></g><path id="node_outline24" fill="none" stroke="none" d="M25.5,641.5h473a5,5,0,0,1,5,5v12a5,5,0,0,1,-5,5h-473a5,5,0,0,1,-5,-5v-12a5,5,0,0,1,5,-5z" stroke-width="3"></path><g id="node_text24" fill="black"><text id="kity_text_225" text-rendering="inherit" font-size="12" dy=".8em" y="644.5800018310547" x="30.5">SCSS 是 Sass 3 引入新的语法，其语法完全兼容 CSS3，并且继承了 Sass 的强大功能。</text></g></g><g id="minder_node26"><g id="node_expander24" style="cursor: pointer;" display="none"><path id="kity_path_236" fill="white" stroke="gray" d="M515.5,704.5A6,6,0,1,1,503.5,704.5A6,6,0,1,1,515.5,704.5"></path><path id="kity_path_237" fill="none" stroke="gray"></path></g><path id="node_outline25" fill="none" stroke="none" d="M297.5,693.5h201a5,5,0,0,1,5,5v12a5,5,0,0,1,-5,5h-201a5,5,0,0,1,-5,-5v-12a5,5,0,0,1,5,-5z" stroke-width="3"></path><g id="node_text25" fill="black"><text id="kity_text_233" text-rendering="inherit" font-size="12" dy=".8em" y="696.5800018310547" x="302.5">识别一些CSS的hacks（css小技巧）</text></g></g><g id="minder_node29"><g id="node_expander27" style="cursor: pointer;"><path id="kity_path_260" fill="white" stroke="gray" d="M679.5,145.5A6,6,0,1,1,667.5,145.5A6,6,0,1,1,679.5,145.5"></path><path id="kity_path_261" fill="none" stroke="gray" d="M669,145.5L678,145.5"></path></g><path id="node_outline28" fill="rgb(238, 243, 246)" stroke="rgb(115, 161, 191)" d="M600.5,132.5h63a3,3,0,0,1,3,3v20a3,3,0,0,1,-3,3h-63a3,3,0,0,1,-3,-3v-20a3,3,0,0,1,3,-3z" stroke-width="1"></path><g id="node_text28" fill="black"><text id="kity_text_257" text-rendering="inherit" font-size="14" dy=".8em" y="136.2599983215332" x="617.5">继承</text></g></g><g id="minder_node30"><g id="node_expander28" style="cursor: pointer;" display="none"><path id="kity_path_268" fill="white" stroke="gray" d="M569.5,145.5A6,6,0,1,1,557.5,145.5A6,6,0,1,1,569.5,145.5"></path><path id="kity_path_269" fill="none" stroke="gray"></path></g><path id="node_outline29" fill="none" stroke="none" d="M309.5,62.5h243a5,5,0,0,1,5,5v156a5,5,0,0,1,-5,5h-243a5,5,0,0,1,-5,-5v-156a5,5,0,0,1,5,-5z" stroke-width="3"></path><g id="node_text29" fill="black"><text id="kity_text_265" text-rendering="inherit" font-size="12" dy=".8em" y="209.5800018310547" x="314.5">SASS允许一个选择器，继承另一个选择器。</text></g><image id="kity_image_270" xlink:href="http://kityminder-img.gz.bcebos.com/fbb21ec3b8854821e8047e0e7eeafda50609efbb" x="330.5" y="67.5" width="200" height="139"></image></g><g id="minder_node31"><g id="node_expander29" style="cursor: pointer;"><path id="kity_path_277" fill="white" stroke="gray" d="M679.5,401.5A6,6,0,1,1,667.5,401.5A6,6,0,1,1,679.5,401.5"></path><path id="kity_path_278" fill="none" stroke="gray" d="M669,401.5L678,401.5"></path></g><path id="node_outline30" fill="rgb(238, 243, 246)" stroke="rgb(115, 161, 191)" d="M592.5,388.5h71a3,3,0,0,1,3,3v20a3,3,0,0,1,-3,3h-71a3,3,0,0,1,-3,-3v-20a3,3,0,0,1,3,-3z" stroke-width="1"></path><g id="node_text30" fill="black"><text id="kity_text_274" text-rendering="inherit" font-size="14" dy=".8em" y="392.2599983215332" x="609.5">Mixin</text></g></g><g id="minder_node32"><g id="node_expander30" style="cursor: pointer;" display="none"><path id="kity_path_285" fill="white" stroke="gray" d="M561.5,279.5A6,6,0,1,1,549.5,279.5A6,6,0,1,1,561.5,279.5"></path><path id="kity_path_286" fill="none" stroke="gray"></path></g><path id="node_outline31" fill="none" stroke="none" d="M129.5,268.5h415a5,5,0,0,1,5,5v12a5,5,0,0,1,-5,5h-415a5,5,0,0,1,-5,-5v-12a5,5,0,0,1,5,-5z" stroke-width="3"></path><g id="node_text31" fill="black"><text id="kity_text_282" text-rendering="inherit" font-size="12" dy=".8em" y="271.5800018310547" x="134.5">使用@mixin命令，定义一个代码块。使用@include命令，调用这个mixin。</text></g></g><g id="minder_node33"><g id="node_expander31" style="cursor: pointer;" display="none"><path id="kity_path_293" fill="white" stroke="gray" d="M561.5,454A6,6,0,1,1,549.5,454A6,6,0,1,1,561.5,454"></path><path id="kity_path_294" fill="none" stroke="gray"></path></g><path id="node_outline32" fill="none" stroke="none" d="M270.5,372.5h274a5,5,0,0,1,5,5v153a5,5,0,0,1,-5,5h-274a5,5,0,0,1,-5,-5v-153a5,5,0,0,1,5,-5z" stroke-width="3"></path><g id="node_text32" fill="black"><text id="kity_text_290" text-rendering="inherit" font-size="12" dy=".8em" y="516.5800018310547" x="275.5">和函数有点类似，把代码块封装起来，可以重用。</text></g><image id="kity_image_295" xlink:href="http://kityminder-img.gz.bcebos.com/f4d875cd845f2f53348d6b28d51fe7afcdcc4b8f" x="307.5" y="377.5" width="200" height="136"></image></g><g id="minder_node34"><g id="node_expander32" style="cursor: pointer;" display="none"><path id="kity_path_302" fill="white" stroke="gray" d="M561.5,331.5A6,6,0,1,1,549.5,331.5A6,6,0,1,1,561.5,331.5"></path><path id="kity_path_303" fill="none" stroke="gray"></path></g><path id="node_outline33" fill="none" stroke="none" d="M371.5,320.5h173a5,5,0,0,1,5,5v12a5,5,0,0,1,-5,5h-173a5,5,0,0,1,-5,-5v-12a5,5,0,0,1,5,-5z" stroke-width="3"></path><g id="node_text33" fill="black"><text id="kity_text_299" text-rendering="inherit" font-size="12" dy=".8em" y="323.5800018310547" x="376.5">mixin可以指定参数和缺省值。</text></g></g><g id="minder_node35"><g id="node_expander33" style="cursor: pointer;" display="none"><path id="kity_path_310" fill="white" stroke="gray" d="M679.5,588.5A6,6,0,1,1,667.5,588.5A6,6,0,1,1,679.5,588.5"></path><path id="kity_path_311" fill="none" stroke="gray"></path></g><path id="node_outline34" fill="rgb(238, 243, 246)" stroke="rgb(115, 161, 191)" d="M530.5,575.5h133a3,3,0,0,1,3,3v20a3,3,0,0,1,-3,3h-133a3,3,0,0,1,-3,-3v-20a3,3,0,0,1,3,-3z" stroke-width="1"></path><g id="node_text34" fill="black"><text id="kity_text_307" text-rendering="inherit" font-size="14" dy=".8em" y="579.2599983215332" x="547.5">循环和定义函数</text></g></g></g></g></svg>